<?xml version="1.0" encoding="UTF-8" standalone="no"?>
<!-- Created with Inkscape (http://www.inkscape.org/) -->

<svg
   version="1.1"
   id="svg2"
   xml:space="preserve"
   width="302.89734"
   height="227.30533"
   viewBox="0 0 302.89734 227.30533"
   sodipodi:docname="culo.pdf"
   xmlns:inkscape="http://www.inkscape.org/namespaces/inkscape"
   xmlns:sodipodi="http://sodipodi.sourceforge.net/DTD/sodipodi-0.dtd"
   xmlns="http://www.w3.org/2000/svg"
   xmlns:svg="http://www.w3.org/2000/svg"><defs
     id="defs6"><clipPath
       clipPathUnits="userSpaceOnUse"
       id="clipPath122"><path
         d="M 0,0 H 226.77702 V 170.08276 H 0 Z"
         id="path120" /></clipPath></defs><sodipodi:namedview
     id="namedview4"
     pagecolor="#ffffff"
     bordercolor="#666666"
     borderopacity="1.0"
     inkscape:pageshadow="2"
     inkscape:pageopacity="0.0"
     inkscape:pagecheckerboard="0" /><g
     id="g8"
     inkscape:groupmode="layer"
     inkscape:label="culo"
     transform="matrix(1.3333333,0,0,-1.3333333,0,227.30533)"><g
       id="g10"
       transform="translate(0.199,0.199)"><g
         id="g12"><g
           id="g14"><g
             id="g16" /><g
             id="g18" /><g
             id="g20"><g
               id="g22" /></g><g
             id="g24" /><g
             id="g26" /><g
             id="g28" /><g
             id="g30" /><g
             id="g32"
             transform="translate(-0.199,-0.199)"><g
               id="g34"
               transform="translate(0.199,0.199)"><g
                 id="g36"><g
                   id="g38"><g
                     id="g40"><g
                       id="g42"><g
                         id="g44"><path
                           d="m 113.3885,54.56822 v 4.25205 m 56.69426,-4.25205 v 4.25205"
                           style="fill:none;stroke:#808080;stroke-width:0.19925;stroke-linecap:round;stroke-linejoin:round;stroke-miterlimit:10;stroke-dasharray:none;stroke-opacity:1"
                           id="path46" /></g></g><g
                       id="g48"><g
                         id="g50"><path
                           d="m 54.56822,113.3885 h 4.25205"
                           style="fill:none;stroke:#808080;stroke-width:0.19925;stroke-linecap:round;stroke-linejoin:round;stroke-miterlimit:10;stroke-dasharray:none;stroke-opacity:1"
                           id="path52" /></g></g><path
                       d="M 0,56.69424 H 224.7845"
                       style="fill:none;stroke:#000000;stroke-width:0.3985;stroke-linecap:round;stroke-linejoin:round;stroke-miterlimit:10;stroke-dasharray:none;stroke-opacity:1"
                       id="path54" /><g
                       id="g56"
                       transform="translate(224.7845,56.69424)"><g
                         id="g58"><path
                           d="M 1.99252,0 -1.19551,1.59401 0,0 -1.19551,-1.59401"
                           style="fill:#000000;fill-opacity:1;fill-rule:nonzero;stroke:none"
                           id="path60" /></g></g><path
                       d="M 56.69424,0 V 168.09024"
                       style="fill:none;stroke:#000000;stroke-width:0.3985;stroke-linecap:round;stroke-linejoin:round;stroke-miterlimit:10;stroke-dasharray:none;stroke-opacity:1"
                       id="path62" /><g
                       id="g64"
                       transform="rotate(90,-55.698,112.39224)"><g
                         id="g66"><path
                           d="M 1.99252,0 -1.19551,1.59401 0,0 -1.19551,-1.59401"
                           style="fill:#000000;fill-opacity:1;fill-rule:nonzero;stroke:none"
                           id="path68" /></g></g><g
                       id="g70"><g
                         id="g72"
                         transform="translate(110.897,44.628)"><g
                           id="g74"><g
                             id="g76"
                             transform="translate(-111.096,-44.827)"><text
                               transform="matrix(1,0,0,-1,111.096,44.827)"
                               style="font-variant:normal;font-weight:normal;font-size:9.9626px;font-family:CMR10;-inkscape-font-specification:CMR10;writing-mode:lr-tb;fill:#000000;fill-opacity:1;fill-rule:nonzero;stroke:none"
                               id="text80"><tspan
                                 x="0"
                                 y="0"
                                 id="tspan78">1</tspan></text><g
                               id="g82"
                               transform="translate(111.096,44.827)" /></g></g><g
                           id="g84"
                           transform="translate(-110.897,-44.628)" /></g></g><g
                       id="g86"><g
                         id="g88"
                         transform="translate(167.59,44.628)"><g
                           id="g90"><g
                             id="g92"
                             transform="translate(-167.789,-44.827)"><text
                               transform="matrix(1,0,0,-1,167.789,44.827)"
                               style="font-variant:normal;font-weight:normal;font-size:9.9626px;font-family:CMR10;-inkscape-font-specification:CMR10;writing-mode:lr-tb;fill:#000000;fill-opacity:1;fill-rule:nonzero;stroke:none"
                               id="text96"><tspan
                                 x="0"
                                 y="0"
                                 id="tspan94">2</tspan></text><g
                               id="g98"
                               transform="translate(167.789,44.827)" /></g></g><g
                           id="g100"
                           transform="translate(-167.59,-44.628)" /></g></g><g
                       id="g102"><g
                         id="g104"
                         transform="translate(46.067,110.177)"><g
                           id="g106"><g
                             id="g108"
                             transform="translate(-46.266,-110.376)"><text
                               transform="matrix(1,0,0,-1,46.266,110.376)"
                               style="font-variant:normal;font-weight:normal;font-size:9.9626px;font-family:CMR10;-inkscape-font-specification:CMR10;writing-mode:lr-tb;fill:#000000;fill-opacity:1;fill-rule:nonzero;stroke:none"
                               id="text112"><tspan
                                 x="0"
                                 y="0"
                                 id="tspan110">1</tspan></text><g
                               id="g114"
                               transform="translate(46.266,110.376)" /></g></g><g
                           id="g116"
                           transform="translate(-46.067,-110.177)" /></g></g><g
                       id="g118"
                       clip-path="url(#clipPath122)"><g
                         id="g124"><path
                           d="m 56.69424,0 c 0,0 1.24076,1.24074 1.71727,1.71725 0.47652,0.47652 1.24076,1.24076 1.71727,1.71727 0.47654,0.47654 1.24082,1.24082 1.71727,1.71728 0.47645,0.47643 1.24027,1.24024 1.71671,1.71668 0.47646,0.47646 1.24074,1.24076 1.71727,1.71729 0.47652,0.47652 1.24075,1.24073 1.71727,1.71725 0.47652,0.47652 1.24074,1.24076 1.71725,1.71729 0.47654,0.47652 1.24077,1.24074 1.71729,1.71725 0.47652,0.47652 1.24074,1.24076 1.71726,1.71727 0.47653,0.47654 1.24075,1.24076 1.71728,1.71727 0.47652,0.47652 1.24082,1.24083 1.71725,1.71727 0.47644,0.47646 1.24025,1.24027 1.71671,1.71671 0.47644,0.47644 1.24074,1.24075 1.71727,1.71727 0.47653,0.47653 1.24075,1.24074 1.71729,1.71727 0.47651,0.47652 1.24073,1.24075 1.71725,1.71727 0.47652,0.47651 1.24075,1.24074 1.71727,1.71727 0.47653,0.47652 1.24075,1.24075 1.71727,1.71727 0.47651,0.47652 1.24075,1.24074 1.71727,1.71725 0.47653,0.47654 1.24081,1.24083 1.71727,1.71729 0.47644,0.47644 1.24025,1.24025 1.71669,1.71669 0.47645,0.47645 1.24075,1.24074 1.71728,1.71727 0.47652,0.47652 1.24074,1.24075 1.71726,1.71727 0.47651,0.47651 1.24075,1.24074 1.71727,1.71727 0.47653,0.47651 1.24075,1.24073 1.71727,1.71727 0.47651,0.47653 1.24083,1.24083 1.71727,1.71727 0.47645,0.47645 1.24019,1.24019 1.7167,1.7167 0.47652,0.47652 1.24132,1.24132 1.71783,1.71784 0.47652,0.47653 1.24026,1.24026 1.71671,1.7167 0.47644,0.47645 1.24076,1.24074 1.71727,1.71726 0.47652,0.47653 1.24074,1.24075 1.71727,1.71729 0.47652,0.47651 1.24075,1.24073 1.71727,1.71725 0.47652,0.47651 1.24074,1.24075 1.71726,1.71728 0.47653,0.47652 1.24077,1.24074 1.71728,1.71726 0.47652,0.47651 1.24082,1.24083 1.71726,1.71727 0.47645,0.47645 1.24018,1.24019 1.7167,1.7167 0.47652,0.47652 1.24132,1.24132 1.71784,1.71784 0.47651,0.47651 1.24024,1.24025 1.7167,1.7167 0.47644,0.47644 1.24074,1.24074 1.71727,1.71727 0.47653,0.47653 1.24076,1.24076 1.71727,1.71729 0.47653,0.47651 1.24075,1.24074 1.71727,1.71725 0.47652,0.47652 1.24075,1.24076 1.71727,1.71727 0.47653,0.47653 1.24082,1.24083 1.71727,1.71727 0.47644,0.47644 1.24025,1.24025 1.71669,1.71669 0.47646,0.47646 1.24075,1.24077 1.71729,1.71729 0.47651,0.47651 1.24073,1.24073 1.71725,1.71725 0.47652,0.47653 1.24076,1.24075 1.71729,1.71729 0.47651,0.47651 1.24073,1.24073 1.71725,1.71725 0.47652,0.47652 1.24075,1.24075 1.71727,1.71728 0.47653,0.47652 1.24083,1.24082 1.71727,1.71726 0.47644,0.47644 1.24025,1.24025 1.71669,1.71669 0.47646,0.47645 1.24075,1.24075 1.71729,1.71729 0.47653,0.47653 1.24075,1.24075 1.71727,1.71726 0.47653,0.47654 1.24073,1.24074 1.71727,1.71728 0.47651,0.47652 1.24075,1.24075 1.71726,1.71727 0.47652,0.47651 1.24074,1.24073 1.71728,1.71727 0.47652,0.47651 1.24075,1.24075 1.71727,1.71727 0.47651,0.47651 1.24081,1.24081 1.71725,1.71725 0.47646,0.47646 1.24028,1.24028 1.71672,1.71672 0.47644,0.47644 1.24074,1.24074 1.71726,1.71726 0.47652,0.47653 1.24075,1.24076 1.71728,1.71728 0.47652,0.47652 1.24074,1.24074 1.71726,1.71726 0.47651,0.47653 1.24075,1.24075 1.71728,1.71728 0.47652,0.47652 1.24074,1.24074 1.71726,1.71726 0.47651,0.47651 1.24075,1.24075 1.71726,1.71728 0.47654,0.47652 1.24083,1.24082 1.71728,1.71726 0.47644,0.47644 1.24026,1.24026 1.7167,1.71672 0.47646,0.47644 1.24075,1.24074 1.71727,1.71725 0.47652,0.47652 1.24075,1.24075 1.71727,1.71727 0.47653,0.47653 1.24074,1.24074 1.71727,1.71727 0.47652,0.47652 1.24075,1.24075 1.71727,1.71727 0.47652,0.47652 1.24074,1.24074 1.71727,1.71727 0.47652,0.47651 1.24083,1.24083 1.71727,1.71727 0.47644,0.47644 1.24025,1.24025 1.71669,1.71671 0.47646,0.47643 1.24077,1.24075 1.71729,1.71727 0.47651,0.47651 1.24073,1.24073 1.71725,1.71725 0.47653,0.47653 1.24075,1.24077 1.71728,1.71728 0.47652,0.47652 1.24074,1.24074 1.71726,1.71726 0.47651,0.47653 1.24083,1.24083 1.71728,1.71728 0.47644,0.47645 1.24018,1.24018 1.71669,1.71669 0.47652,0.47654 1.24132,1.24132 1.71784,1.71785 0.47653,0.47652 1.24026,1.24025 1.7167,1.71669 0.47644,0.47644 1.24076,1.24076 1.71727,1.71729 0.47653,0.47652 1.24076,1.24074 1.71727,1.71725 0.47652,0.47652 1.24076,1.24076 1.71727,1.71727 0.47654,0.47654 1.24074,1.24074 1.71727,1.71727 0.47652,0.47652 1.24076,1.24076 1.71727,1.71728 0.47652,0.47651 1.24082,1.24081 1.71727,1.71726 0.47644,0.47644 1.24018,1.24018 1.71669,1.71669 0.47652,0.47652 1.24131,1.24131 1.71784,1.71784 0.47655,0.47655 1.24028,1.24028 1.71672,1.71672 0.47644,0.47644 1.24073,1.24074 1.71725,1.71725 0.47654,0.47654 1.24076,1.24077 1.71729,1.71729 0.47652,0.47652 1.24074,1.24074 1.71725,1.71725 0.47652,0.47654 1.24076,1.24076 1.71729,1.71729 0.47652,0.47651 1.24081,1.24081 1.71725,1.71725 0.47644,0.47644 1.24025,1.24026 1.71671,1.71671 0.47644,0.47644 1.24075,1.24075 1.71727,1.71727 0.47652,0.47652 1.24074,1.24074 1.71725,1.71727 0.47653,0.47651 1.71729,1.71727 1.71729,1.71727"
                           style="fill:none;stroke:#00adef;stroke-width:0.99628;stroke-linecap:round;stroke-linejoin:round;stroke-miterlimit:10;stroke-dasharray:none;stroke-opacity:1"
                           id="path126" /></g><g
                         id="g128"><path
                           d="m 62.36368,-73.84879 c 0,0 1.19986,10.93639 1.66057,14.56247 0.4607,3.62609 1.19935,8.63393 1.66,11.57187 0.46063,2.93796 1.19937,7.13022 1.66,9.60288 0.46064,2.47267 1.19937,6.08305 1.66002,8.21841 0.46063,2.13536 1.1993,5.29344 1.66001,7.17182 0.4607,1.87837 1.19986,4.68881 1.66056,6.36619 0.46071,1.67739 1.19939,4.20841 1.66002,5.72328 0.46064,1.51488 1.19937,3.81336 1.66001,5.1949 0.46063,1.38155 1.19937,3.4935 1.66002,4.76233 0.46063,1.2688 1.19935,3.20761 1.65998,4.38242 0.46063,1.17482 1.19928,2.99032 1.66003,4.08482 0.46072,1.0945 1.19987,2.78142 1.66058,3.80362 0.46071,1.02222 1.19935,2.6043 1.65999,3.56381 0.46063,0.95952 1.19938,2.44754 1.66001,3.35177 0.46064,0.9042 1.19938,2.31011 1.66001,3.16525 0.46063,0.85512 1.19929,2.18681 1.66001,2.99797 0.46072,0.81117 1.19987,2.07745 1.66057,2.84833 0.46071,0.77087 1.19936,1.97238 1.65999,2.70771 0.46065,0.73532 1.19941,1.88962 1.66004,2.59208 0.46063,0.70245 1.19935,1.79943 1.65999,2.47073 0.46063,0.67128 1.19937,1.72386 1.66001,2.36755 0.46064,0.64368 1.19938,1.65236 1.66001,2.27173 0.46063,0.61939 1.19937,1.59509 1.66002,2.19235 0.46063,0.59728 1.19929,1.53768 1.66,2.11245 0.46071,0.57476 1.19986,1.47637 1.66057,2.03022 0.46071,0.55385 1.19937,1.42664 1.66,1.96161 0.46064,0.53498 1.19939,1.3768 1.66002,1.89417 0.46063,0.51735 1.19936,1.3334 1.66001,1.83462 0.46063,0.50123 1.19937,1.29253 1.66,1.77794 0.46063,0.48541 1.19929,1.2498 1.66002,1.72066 0.46071,0.47087 1.19986,1.21571 1.66057,1.67305 0.4607,0.45733 1.19937,1.17895 1.66,1.62315 0.46063,0.4442 1.19938,1.14621 1.66002,1.57839 0.46063,0.43216 1.19937,1.11596 1.66,1.5364 0.46063,0.42044 1.19936,1.08424 1.66001,1.49389 0.46063,0.40966 1.19929,1.05947 1.66,1.45875 0.46071,0.39928 1.19994,1.0297 1.66057,1.41907 0.46065,0.38936 1.19882,1.00713 1.65945,1.3873 0.46063,0.38017 1.19986,0.98175 1.66057,1.35272 0.46071,0.37096 1.19939,0.95883 1.66002,1.32098 0.46063,0.36215 1.19936,0.93502 1.65999,1.28922 0.46063,0.3542 1.19929,0.91716 1.66003,1.26373 0.46072,0.34658 1.19986,0.89519 1.66057,1.23421 0.46071,0.33902 1.19935,0.87737 1.65999,1.2093 0.46065,0.33196 1.19939,0.85857 1.66002,1.18322 0.46063,0.32463 1.19937,0.83813 1.66,1.15655 0.46064,0.31842 1.19937,0.82622 1.66002,1.13841 0.46063,0.31221 1.19937,0.80573 1.66,1.11179 0.46064,0.30606 1.19928,0.79426 1.66001,1.09419 0.46071,0.29994 1.19986,0.77313 1.66058,1.06757 0.46073,0.29443 1.19937,0.76552 1.66,1.0545 0.46063,0.289 1.19938,0.74463 1.66001,1.02844 0.46063,0.2838 1.19937,0.73792 1.66,1.01708 0.46063,0.27917 1.1993,0.72104 1.66002,0.99501 0.46071,0.27397 1.19986,0.71066 1.66057,0.97967 0.46071,0.26902 1.19937,0.69466 1.66,0.95926 0.46065,0.26461 1.19939,0.6877 1.66002,0.94792 0.46063,0.26021 1.19937,0.67133 1.66001,0.92754 0.46063,0.2562 1.19937,0.66698 1.66,0.91901 0.46063,0.25201 1.19937,0.64959 1.66,0.89746 0.46064,0.24785 1.1993,0.64514 1.66002,0.88898 0.46071,0.24383 1.19986,0.62807 1.66057,0.86854 0.46071,0.24046 1.19937,0.62792 1.66001,0.86459 0.46064,0.23668 1.19938,0.60709 1.66001,0.84133 0.46063,0.23425 1.1993,0.61545 1.66001,0.84701 0.4607,0.23157 1.19993,0.59578 1.66058,0.82209 0.46063,0.22628 1.19879,0.58561 1.65942,0.80901 0.46064,0.2234 1.19986,0.5807 1.66058,0.8011 0.46075,0.22039 1.1994,0.57038 1.66003,0.78748 0.46063,0.21709 1.19935,0.56293 1.65998,0.77727 0.46065,0.21435 1.19939,0.55612 1.66002,0.76764 0.46064,0.21152 1.19937,0.54828 1.66001,0.75688 0.46063,0.20861 1.19931,0.5408 1.66002,0.74666 0.4607,0.20584 1.19986,0.53377 1.66056,0.73702 0.46071,0.20326 1.19938,0.52706 1.66001,0.72796 0.46065,0.2009 1.19938,0.52194 1.66002,0.72002 0.46063,0.19806 1.19935,0.51199 1.65999,0.70753 0.46063,0.19556 1.19938,0.50838 1.66001,0.70189 0.46064,0.1935 1.1993,0.50199 1.66001,0.69281 0.46071,0.19083 1.19986,0.49428 1.66058,0.68259 0.46071,0.18831 1.19937,0.48816 1.66,0.67467 0.46064,0.18649 1.19938,0.4852 1.66001,0.66957 0.46065,0.18435 1.19937,0.47732 1.66,0.65933 0.46063,0.18201 1.19939,0.47266 1.66002,0.65256 0.46063,0.1799 1.1993,0.46595 1.66,0.64404 0.46071,0.1781 1.19994,0.46356 1.66057,0.63953 0.46064,0.17596 1.19881,0.4552 1.65946,0.62872 0.46063,0.17351 1.19986,0.44992 1.66057,0.62195 0.4607,0.17201 1.19937,0.44734 1.66,0.61795 0.46065,0.17061 1.19939,0.44327 1.66002,0.61174 0.46063,0.16849 1.19937,0.43639 1.66,0.60266 0.46063,0.16627 1.19931,0.4313 1.66002,0.59586 0.46071,0.16455 1.19986,0.42687 1.66057,0.59017 0.46071,0.1633 1.19936,0.42499 1.65999,0.5868 0.46064,0.16179 1.19938,0.4199 1.66002,0.57942 0.46063,0.15951 1.19937,0.41238 1.66,0.57033 0.46065,0.15794 1.19939,0.41122 1.66002,0.56808 0.46063,0.15685 1.19929,0.40729 1.66,0.56241 0.46071,0.15512 1.66059,0.5556 1.66059,0.5556"
                           style="fill:none;stroke:#00ff00;stroke-width:0.99628;stroke-linecap:round;stroke-linejoin:round;stroke-miterlimit:10;stroke-dasharray:none;stroke-opacity:1"
                           id="path130" /></g><g
                         id="g132"><path
                           d="m 62.36368,-453.55406 c 0,0 1.19986,99.38695 1.66057,128.44086 0.4607,29.05389 1.19935,61.99237 1.66,80.9594 0.46063,18.96703 1.19937,42.36213 1.66,55.74178 0.46064,13.37966 1.19937,30.73793 1.66002,40.68949 0.46063,9.95153 1.1993,23.33812 1.66001,31.03442 0.4607,7.69631 1.19986,18.30431 1.66056,24.43523 0.46071,6.13093 1.19939,14.75251 1.66002,19.75228 0.46064,4.99976 1.19937,12.12844 1.66001,16.28258 0.46063,4.15415 1.19937,10.14932 1.66002,13.65766 0.46063,3.50833 1.19935,8.62625 1.65998,11.62799 0.46063,3.00174 1.19928,7.40912 1.66003,10.00653 0.46072,2.59743 1.19987,6.44294 1.66058,8.71391 0.46071,2.27098 1.19935,5.65257 1.65999,7.65373 0.46063,2.00116 1.19938,4.99308 1.66001,6.76926 0.46064,1.77618 1.19938,4.4433 1.66001,6.03227 0.46063,1.58896 1.19929,3.9899 1.66001,5.41997 0.46072,1.43007 1.19987,3.59463 1.66057,4.88704 0.46071,1.29242 1.19936,3.25418 1.65999,4.42782 0.46065,1.17364 1.19941,2.95881 1.66004,4.03098 0.46063,1.07216 1.19935,2.71476 1.65999,3.69646 0.46063,0.9817 1.19937,2.47673 1.66001,3.37898 0.46064,0.90225 1.19938,2.29083 1.66001,3.12386 0.46063,0.83302 1.19937,2.10917 1.66002,2.88005 0.46063,0.77089 1.19929,1.95936 1.66,2.67598 0.46071,0.71659 1.19986,1.82263 1.66057,2.48887 0.46071,0.66626 1.19937,1.69249 1.66,2.31313 0.46064,0.62063 1.19939,1.57794 1.66002,2.16005 0.46063,0.58209 1.19936,1.4902 1.66001,2.03532 0.46063,0.54514 1.19937,1.38229 1.66,1.8936 0.46063,0.51129 1.19929,1.3095 1.66002,1.79154 0.46071,0.48204 1.19986,1.2288 1.66057,1.68267 0.4607,0.45388 1.19937,1.15989 1.66,1.58858 0.46063,0.4287 1.19938,1.09577 1.66002,1.50127 0.46063,0.4055 1.19937,1.0373 1.66,1.42132 0.46063,0.38402 1.19936,0.98221 1.66001,1.34648 0.46063,0.36428 1.19929,0.93293 1.66,1.27903 0.46071,0.3461 1.19994,0.88641 1.66057,1.21553 0.46065,0.32913 1.19882,0.84318 1.65945,1.15657 0.46063,0.31338 1.19986,0.80337 1.66057,1.10212 0.46071,0.29875 1.19939,0.76589 1.66002,1.05112 0.46063,0.28522 1.19936,0.73206 1.65999,1.00463 0.46063,0.27255 1.19929,0.69914 1.66003,0.95982 0.46072,0.2607 1.19986,0.66952 1.66057,0.91902 0.46071,0.24951 1.19935,0.64035 1.65999,0.87932 0.46065,0.23898 1.19939,0.61377 1.66002,0.84306 0.46063,0.22928 1.19937,0.58933 1.66,0.80957 0.46064,0.22025 1.19937,0.56642 1.66002,0.77786 0.46063,0.21145 1.19937,0.54285 1.66,0.7461 0.46064,0.20325 1.19928,0.52318 1.66001,0.71889 0.46071,0.19571 1.19986,0.50336 1.66058,0.69166 0.46073,0.1883 1.19937,0.48412 1.66,0.66559 0.46063,0.18146 1.19938,0.46731 1.66001,0.64233 0.46063,0.17502 1.19937,0.45025 1.66,0.61913 0.46063,0.16887 1.1993,0.43513 1.66002,0.59811 0.46071,0.16298 1.19986,0.4191 1.66057,0.57657 0.46071,0.15747 1.19937,0.40624 1.66,0.55844 0.46065,0.15221 1.19939,0.39135 1.66002,0.53859 0.46063,0.14725 1.19937,0.38013 1.66001,0.52274 0.46063,0.1426 1.19937,0.36725 1.66,0.50514 0.46063,0.13788 1.19937,0.35515 1.66,0.48871 0.46064,0.13356 1.1993,0.3444 1.66002,0.47397 0.46071,0.12954 1.19986,0.33416 1.66057,0.45978 0.46071,0.1256 1.19937,0.32385 1.66001,0.44561 0.46064,0.12177 1.19938,0.31386 1.66001,0.43201 0.46063,0.11815 1.1993,0.30464 1.66001,0.41954 0.4607,0.11491 1.19993,0.29717 1.66058,0.40877 0.46063,0.11162 1.19879,0.28741 1.65942,0.39572 0.46064,0.10832 1.19986,0.27957 1.66058,0.38496 0.46075,0.10539 1.1994,0.27219 1.66003,0.37474 0.46063,0.10257 1.19935,0.26491 1.65998,0.36455 0.46065,0.09966 1.19939,0.25687 1.66002,0.35376 0.46064,0.09691 1.19937,0.25024 1.66001,0.34471 0.46063,0.09447 1.19931,0.24425 1.66002,0.33621 0.4607,0.09195 1.19986,0.23697 1.66056,0.32656 0.46071,0.08958 1.19938,0.23181 1.66001,0.3192 0.46065,0.08737 1.19938,0.22538 1.66002,0.31065 0.46063,0.08528 1.19935,0.22067 1.65999,0.30389 0.46063,0.08322 1.19938,0.21485 1.66001,0.29595 0.46064,0.08108 1.1993,0.20952 1.66001,0.28857 0.46071,0.07906 1.19986,0.20404 1.66058,0.2812 0.46071,0.07717 1.19937,0.19962 1.66,0.27499 0.46064,0.07534 1.19938,0.19445 1.66001,0.26815 0.46065,0.0737 1.19937,0.19101 1.66,0.26306 0.46063,0.07204 1.19939,0.18603 1.66002,0.25626 0.46063,0.07024 1.1993,0.18128 1.66,0.25003 0.46071,0.06874 1.19994,0.17831 1.66057,0.24547 0.46064,0.06717 1.19881,0.17302 1.65946,0.23869 0.46063,0.06568 1.19986,0.17038 1.66057,0.23473 0.4607,0.06433 1.19937,0.16618 1.66,0.22902 0.46065,0.06285 1.19939,0.16238 1.66002,0.22397 0.46063,0.06157 1.19937,0.15971 1.66,0.21997 0.46063,0.06024 1.19931,0.15523 1.66002,0.21428 0.46071,0.05906 1.19986,0.15359 1.66057,0.21147 0.46071,0.05789 1.19936,0.14934 1.65999,0.20581 0.46064,0.05647 1.19938,0.14581 1.66002,0.20126 0.46063,0.05544 1.19937,0.144 1.66,0.19843 0.46065,0.05443 1.19939,0.14065 1.66002,0.19391 0.46063,0.05325 1.19929,0.13762 1.66,0.18992 0.46071,0.05231 1.66059,0.18709 1.66059,0.18709"
                           style="fill:none;stroke:#ff8000;stroke-width:0.99628;stroke-linecap:round;stroke-linejoin:round;stroke-miterlimit:10;stroke-dasharray:none;stroke-opacity:1"
                           id="path134" /></g></g></g></g></g><g
                 id="g136"
                 transform="translate(-0.199,-0.199)" /></g><g
               id="g138"
               transform="translate(0.199,0.199)" /></g><g
             id="g140" /><g
             id="g142" /></g></g></g></g></svg>
