<?xml version="1.0" encoding="UTF-8" standalone="no"?>
<!-- Created with Inkscape (http://www.inkscape.org/) -->

<svg
   version="1.1"
   id="svg2"
   xml:space="preserve"
   width="151.71468"
   height="151.71468"
   viewBox="0 0 151.71468 151.71468"
   sodipodi:docname="culo.pdf"
   xmlns:inkscape="http://www.inkscape.org/namespaces/inkscape"
   xmlns:sodipodi="http://sodipodi.sourceforge.net/DTD/sodipodi-0.dtd"
   xmlns="http://www.w3.org/2000/svg"
   xmlns:svg="http://www.w3.org/2000/svg"><defs
     id="defs6"><clipPath
       clipPathUnits="userSpaceOnUse"
       id="clipPath154"><path
         d="M 0,0 H 113.3885 V 113.3885 H 0 Z"
         id="path152" /></clipPath></defs><sodipodi:namedview
     id="namedview4"
     pagecolor="#ffffff"
     bordercolor="#666666"
     borderopacity="1.0"
     inkscape:pageshadow="2"
     inkscape:pageopacity="0.0"
     inkscape:pagecheckerboard="0" /><g
     id="g8"
     inkscape:groupmode="layer"
     inkscape:label="culo"
     transform="matrix(1.3333333,0,0,-1.3333333,0,151.71467)"><g
       id="g10"
       transform="translate(0.199,0.199)"><g
         id="g12"><g
           id="g14"><g
             id="g16" /><g
             id="g18" /><g
             id="g20"><g
               id="g22" /></g><g
             id="g24" /><g
             id="g26" /><g
             id="g28" /><g
             id="g30" /><g
             id="g32"
             transform="translate(-0.199,-0.199)"><g
               id="g34"
               transform="translate(0.199,0.199)"><g
                 id="g36"><g
                   id="g38"><g
                     id="g40"><g
                       id="g42"><g
                         id="g44"><path
                           d="m 56.69424,26.2211 v 4.25203 M 85.04138,26.2211 v 4.25203"
                           style="fill:none;stroke:#808080;stroke-width:0.19925;stroke-linecap:round;stroke-linejoin:round;stroke-miterlimit:10;stroke-dasharray:none;stroke-opacity:1"
                           id="path46" /></g></g><g
                       id="g48"><g
                         id="g50"><path
                           d="m 26.2211,56.69424 h 4.25203 M 26.2211,85.04138 h 4.25203"
                           style="fill:none;stroke:#808080;stroke-width:0.19925;stroke-linecap:round;stroke-linejoin:round;stroke-miterlimit:10;stroke-dasharray:none;stroke-opacity:1"
                           id="path52" /></g></g><path
                       d="M 0,28.34712 H 111.39598"
                       style="fill:none;stroke:#000000;stroke-width:0.3985;stroke-linecap:round;stroke-linejoin:round;stroke-miterlimit:10;stroke-dasharray:none;stroke-opacity:1"
                       id="path54" /><g
                       id="g56"
                       transform="translate(111.39598,28.34712)"><g
                         id="g58"><path
                           d="M 1.99252,0 -1.19551,1.59401 0,0 -1.19551,-1.59401"
                           style="fill:#000000;fill-opacity:1;fill-rule:nonzero;stroke:none"
                           id="path60" /></g></g><path
                       d="M 28.34712,0 V 111.39598"
                       style="fill:none;stroke:#000000;stroke-width:0.3985;stroke-linecap:round;stroke-linejoin:round;stroke-miterlimit:10;stroke-dasharray:none;stroke-opacity:1"
                       id="path62" /><g
                       id="g64"
                       transform="rotate(90,-41.52443,69.87155)"><g
                         id="g66"><path
                           d="M 1.99252,0 -1.19551,1.59401 0,0 -1.19551,-1.59401"
                           style="fill:#000000;fill-opacity:1;fill-rule:nonzero;stroke:none"
                           id="path68" /></g></g><g
                       id="g70"><g
                         id="g72"
                         transform="translate(50.329,16.281)"><g
                           id="g74"><g
                             id="g76"
                             transform="translate(-50.528,-16.48)"><text
                               transform="matrix(1,0,0,-1,50.528,16.48)"
                               style="font-variant:normal;font-weight:normal;font-size:9.9626px;font-family:CMR10;-inkscape-font-specification:CMR10;writing-mode:lr-tb;fill:#000000;fill-opacity:1;fill-rule:nonzero;stroke:none"
                               id="text80"><tspan
                                 x="0"
                                 y="0"
                                 id="tspan78">0</tspan></text><text
                               transform="matrix(1,0,0,-1,55.509,16.48)"
                               style="font-variant:normal;font-weight:normal;font-size:9.9626px;font-family:CMMI10;-inkscape-font-specification:CMMI10;writing-mode:lr-tb;fill:#000000;fill-opacity:1;fill-rule:nonzero;stroke:none"
                               id="text84"><tspan
                                 x="0"
                                 y="0"
                                 id="tspan82">.</tspan></text><text
                               transform="matrix(1,0,0,-1,58.276,16.48)"
                               style="font-variant:normal;font-weight:normal;font-size:9.9626px;font-family:CMR10;-inkscape-font-specification:CMR10;writing-mode:lr-tb;fill:#000000;fill-opacity:1;fill-rule:nonzero;stroke:none"
                               id="text88"><tspan
                                 x="0"
                                 y="0"
                                 id="tspan86">5</tspan></text><g
                               id="g90"
                               transform="translate(50.528,16.48)" /></g></g><g
                           id="g92"
                           transform="translate(-50.329,-16.281)" /></g></g><g
                       id="g94"><g
                         id="g96"
                         transform="translate(82.55,16.281)"><g
                           id="g98"><g
                             id="g100"
                             transform="translate(-82.749,-16.48)"><text
                               transform="matrix(1,0,0,-1,82.749,16.48)"
                               style="font-variant:normal;font-weight:normal;font-size:9.9626px;font-family:CMR10;-inkscape-font-specification:CMR10;writing-mode:lr-tb;fill:#000000;fill-opacity:1;fill-rule:nonzero;stroke:none"
                               id="text104"><tspan
                                 x="0"
                                 y="0"
                                 id="tspan102">1</tspan></text><g
                               id="g106"
                               transform="translate(82.749,16.48)" /></g></g><g
                           id="g108"
                           transform="translate(-82.55,-16.281)" /></g></g><g
                       id="g110"><g
                         id="g112"
                         transform="translate(9.971,53.484)"><g
                           id="g114"><g
                             id="g116"
                             transform="translate(-10.17,-53.683)"><text
                               transform="matrix(1,0,0,-1,10.17,53.683)"
                               style="font-variant:normal;font-weight:normal;font-size:9.9626px;font-family:CMR10;-inkscape-font-specification:CMR10;writing-mode:lr-tb;fill:#000000;fill-opacity:1;fill-rule:nonzero;stroke:none"
                               id="text120"><tspan
                                 x="0"
                                 y="0"
                                 id="tspan118">0</tspan></text><text
                               transform="matrix(1,0,0,-1,15.151,53.683)"
                               style="font-variant:normal;font-weight:normal;font-size:9.9626px;font-family:CMMI10;-inkscape-font-specification:CMMI10;writing-mode:lr-tb;fill:#000000;fill-opacity:1;fill-rule:nonzero;stroke:none"
                               id="text124"><tspan
                                 x="0"
                                 y="0"
                                 id="tspan122">.</tspan></text><text
                               transform="matrix(1,0,0,-1,17.919,53.683)"
                               style="font-variant:normal;font-weight:normal;font-size:9.9626px;font-family:CMR10;-inkscape-font-specification:CMR10;writing-mode:lr-tb;fill:#000000;fill-opacity:1;fill-rule:nonzero;stroke:none"
                               id="text128"><tspan
                                 x="0"
                                 y="0"
                                 id="tspan126">5</tspan></text><g
                               id="g130"
                               transform="translate(10.17,53.683)" /></g></g><g
                           id="g132"
                           transform="translate(-9.971,-53.484)" /></g></g><g
                       id="g134"><g
                         id="g136"
                         transform="translate(17.72,81.83)"><g
                           id="g138"><g
                             id="g140"
                             transform="translate(-17.919,-82.029)"><text
                               transform="matrix(1,0,0,-1,17.919,82.029)"
                               style="font-variant:normal;font-weight:normal;font-size:9.9626px;font-family:CMR10;-inkscape-font-specification:CMR10;writing-mode:lr-tb;fill:#000000;fill-opacity:1;fill-rule:nonzero;stroke:none"
                               id="text144"><tspan
                                 x="0"
                                 y="0"
                                 id="tspan142">1</tspan></text><g
                               id="g146"
                               transform="translate(17.919,82.029)" /></g></g><g
                           id="g148"
                           transform="translate(-17.72,-81.83)" /></g></g><g
                       id="g150"
                       clip-path="url(#clipPath154)"><g
                         id="g156"><path
                           d="m 28.34712,28.34712 c 0,0 0.41339,3.50144 0.57204,4.62285 0.15864,1.1214 0.41283,2.56159 0.57147,3.45947 0.15865,0.89791 0.41341,2.21556 0.57205,3.012 0.15865,0.79643 0.41283,1.99949 0.57148,2.72819 0.15864,0.72869 0.41331,1.84877 0.57204,2.52376 0.15874,0.67497 0.4134,1.71378 0.57206,2.34111 0.15864,0.62735 0.41283,1.59004 0.57147,2.1804 0.15865,0.59038 0.41339,1.51558 0.57205,2.07462 0.15865,0.55904 0.41282,1.42676 0.57148,1.95459 0.15864,0.52785 0.4133,1.3499 0.57204,1.84982 0.15874,0.49994 0.41338,1.27674 0.57203,1.75339 0.15866,0.47665 0.41284,1.22652 0.57149,1.68211 0.15866,0.4556 0.41339,1.16875 0.57203,1.60163 0.15865,0.43287 0.41285,1.10498 0.57149,1.51826 0.15866,0.41328 0.4133,1.0647 0.57204,1.46044 0.15873,0.39574 0.4134,1.01428 0.57205,1.39184 0.15865,0.37758 0.41283,0.96915 0.57147,1.3295 0.15865,0.36034 0.41332,0.92369 0.57205,1.26767 0.15874,0.34398 0.41341,0.88165 0.57205,1.21155 0.15865,0.32991 0.41291,0.85014 0.57148,1.16621 0.15857,0.31606 0.41273,0.81075 0.57147,1.11179 0.15874,0.30102 0.41388,0.77127 0.57262,1.05789 0.15873,0.28664 0.41284,0.7339 0.57148,1.00804 0.15865,0.27413 0.4134,0.70765 0.57204,0.96777 0.15865,0.26012 0.41284,0.65932 0.57149,0.90709 0.15864,0.24779 0.41339,0.6409 0.57203,0.87877 0.15865,0.23787 0.41285,0.60945 0.57149,0.83568 0.15865,0.22621 0.4133,0.58184 0.57204,0.79484 0.15874,0.21302 0.41339,0.5386 0.57205,0.74044 0.15865,0.20183 0.41281,0.52179 0.57147,0.71436 0.15865,0.19255 0.41339,0.49291 0.57206,0.67352 0.15864,0.18058 0.41281,0.45849 0.57147,0.62817 0.15864,0.16966 0.4133,0.43607 0.57203,0.59471 0.15876,0.15865 0.41341,0.40077 0.57206,0.54882 0.15864,0.14802 0.41282,0.37936 0.57147,0.51818 0.15866,0.13883 0.4134,0.35393 0.57205,0.48247 0.15865,0.12853 0.41283,0.32521 0.57147,0.44391 0.15865,0.1187 0.4133,0.30203 0.57204,0.41159 0.15874,0.10956 0.41341,0.27873 0.57205,0.37816 0.15864,0.09941 0.41283,0.24832 0.57147,0.33847 0.15865,0.09015 0.41341,0.23111 0.57206,0.31125 0.15864,0.08015 0.41282,0.19638 0.57147,0.26646 0.15864,0.07009 0.41331,0.17804 0.57205,0.23868 0.15874,0.06064 0.41341,0.14801 0.57205,0.19843 0.15864,0.05041 0.41283,0.12338 0.57147,0.16499 0.15865,0.04159 0.41339,0.10095 0.57206,0.13493 0.15866,0.03397 0.41284,0.0857 0.57148,0.10999 0.15865,0.02429 0.41332,0.05097 0.57204,0.0652 0.15872,0.01422 0.41339,0.03255 0.57204,0.03741 0.15864,0.0049 0.41284,0.0016 0.57148,-0.0023 0.15865,-0.0038 0.41329,-0.01357 0.57204,-0.02551 0.15874,-0.01195 0.41339,-0.03786 0.57205,-0.06067 0.15865,-0.0228 0.41281,-0.07181 0.57148,-0.10373 0.15864,-0.03194 0.41337,-0.08616 0.57203,-0.12644 0.15868,-0.04028 0.41284,-0.11335 0.57149,-0.16384 0.15866,-0.05051 0.41339,-0.13973 0.57204,-0.20014 0.15866,-0.06041 0.41284,-0.16584 0.57148,-0.23529 0.15866,-0.06944 0.4133,-0.18738 0.57204,-0.26532 0.15874,-0.07794 0.41341,-0.20859 0.57205,-0.29653 0.15865,-0.08794 0.41283,-0.2397 0.57147,-0.3373 0.15865,-0.09763 0.41332,-0.25858 0.57206,-0.36626 0.15874,-0.10767 0.41339,-0.29207 0.57204,-0.4099 0.15864,-0.11783 0.41283,-0.31251 0.57148,-0.43939 0.15865,-0.12688 0.4133,-0.33798 0.57204,-0.47508 0.15873,-0.13712 0.4134,-0.36569 0.57205,-0.51309 0.15864,-0.1474 0.41283,-0.39189 0.57147,-0.54937 0.15865,-0.15748 0.41339,-0.41709 0.57206,-0.58566 0.15865,-0.16855 0.41284,-0.45042 0.57148,-0.6293 0.15865,-0.17887 0.41339,-0.47002 0.57204,-0.65991 0.15864,-0.18988 0.41284,-0.50841 0.57148,-0.70868 0.15865,-0.20027 0.4133,-0.52396 0.57204,-0.73476 0.15874,-0.21081 0.41339,-0.56078 0.57206,-0.78464 0.15864,-0.22386 0.4128,-0.59361 0.57147,-0.82887 0.15864,-0.23527 0.41339,-0.62035 0.57205,-0.86687 0.15864,-0.24652 0.41281,-0.65077 0.57147,-0.90994 0.15865,-0.25918 0.4133,-0.68486 0.57204,-0.95813 0.15875,-0.27328 0.41339,-0.72495 0.57203,-1.01143 0.15866,-0.28648 0.41284,-0.75494 0.57149,-1.05339 0.15866,-0.29844 0.41339,-0.78531 0.57204,-1.09759 0.15864,-0.31227 0.41282,-0.82594 0.57149,-1.15317 0.15866,-0.32721 0.41331,-0.86304 0.57205,-1.20529 0.15873,-0.34228 0.41339,-0.90325 0.57203,-1.26146 0.15865,-0.35823 0.41284,-0.94519 0.57149,-1.32041 0.15865,-0.37521 0.4133,-0.99091 0.57204,-1.38391 0.15874,-0.39299 0.41341,-1.03691 0.57205,-1.44853 0.15865,-0.41164 0.41283,-1.08894 0.57147,-1.51827 0.15865,-0.42933 0.41339,-1.12641 0.57204,-1.5761 0.15865,-0.44971 0.41283,-1.19117 0.57149,-1.66514 0.15866,-0.47396 0.41331,-1.25366 0.57205,-1.75099 0.15874,-0.49733 0.41339,-1.30938 0.57204,-1.83343 0.15864,-0.52404 0.41282,-1.38979 0.57148,-1.94354 0.15866,-0.55375 0.41341,-1.46203 0.57205,-2.0475 0.15865,-0.5855 0.41283,-1.54877 0.57148,-2.17231 0.15864,-0.62355 0.41331,-1.65559 0.57205,-2.32174 0.15874,-0.66616 0.41337,-1.75986 0.57204,-2.47941 0.15864,-0.71955 0.41281,-1.92041 0.57147,-2.70671 0.15864,-0.78628 0.41339,-2.08006 0.57203,-2.9604 0.15867,-0.88033 0.41283,-2.32429 0.57149,-3.38441 0.15865,-1.06011 0.57204,-4.25615 0.57204,-4.25615"
                           style="fill:none;stroke:#00adef;stroke-width:0.99628;stroke-linecap:round;stroke-linejoin:round;stroke-miterlimit:10;stroke-dasharray:none;stroke-opacity:1"
                           id="path158" /></g></g></g></g></g><g
                 id="g160"
                 transform="translate(-0.199,-0.199)" /></g><g
               id="g162"
               transform="translate(0.199,0.199)" /></g><g
             id="g164" /><g
             id="g166" /></g></g></g></g></svg>
