<svg width="800" height="600" xmlns="http://www.w3.org/2000/svg" xmlns:undefined="http://www.inkscape.org/namespaces/inkscape" style="vector-effect: non-scaling-stroke;">

 <g>
  <title>Layer 1</title>
  <g>
   <defs transform="translate(-11, -25) translate(-20, -177) translate(33, 397) translate(152, 325) translate(440, 163) translate(460, 447) translate(253, 135) translate(-76, -56) translate(-256, -327) translate(-303, -372) translate(-19, -315) translate(-748, 35) translate(-37, -242) translate(5, 479) translate(313, 20) translate(-325, -9) translate(-96, -104) translate(59, 452) translate(-76, 330) translate(0, 392) translate(-236, 91) translate(3) translate(0, -261) translate(-233, -170) scale(2.03526, 1) translate(233, 170) translate(679.519, -170) scale(1.11634, 1) translate(-679.519, 170) translate(-185.296, 952) scale(1, 1.19697) translate(185.296, -952) translate(-185.296, 1122.84) scale(1, 0.922561) translate(185.296, -1122.84) translate(-185.296, 1217.08) scale(1, 1.29298) translate(185.296, -1217.08) translate(-218.746, 1172.43) scale(1, 1.20911) translate(218.746, -1172.43) translate(-192.778, 1231.48) scale(1, 1.23645) translate(192.778, -1231.48) translate(-378.074, -178.958) scale(1.14468, 1) translate(378.074, 178.958) translate(-208.016, 1176.81) scale(1, 1.11315) translate(208.016, -1176.81) translate(-517.157, -284.498) scale(1.23293, 1) translate(517.157, 284.498) translate(-617.486, -602.244) scale(0.91359, 1) translate(617.486, 602.244) translate(-219.152, 1137.15) scale(1, 1.1114) translate(219.152, -1137.15)" id="svg_975">
    <clipPath id="svg_972" clipPathUnits="userSpaceOnUse">
     <path id="svg_977" clip-rule="evenodd" d="m-1139.13623,2608.56029l2480,0l0,3506.9824l-2480,0l0,-3506.9824z"/>
    </clipPath>
    <clipPath id="svg_923" clipPathUnits="userSpaceOnUse">
     <path id="svg_976" clip-rule="evenodd" d="m-1061.01123,2721.06029l2325,0l0,3284.375l-2325,0l0,-3284.375z"/>
    </clipPath>
   </defs>
   <g transform="matrix(0.937431, 0, 0, 0.845062, 394.861, -2667.4)"   id="svg_920">
    <g id="svg_970">
     <g clip-path="url(#svg_972)" id="svg_971">
      <g transform="translate(0, -815.625) scale(3.125)" id="svg_973">
       <path fill-rule="nonzero" fill="#ffffff" id="svg_974" d="m-364.5236,1095.73934l794,0l0,1122l-794,0l0,-1122z"/>
      </g>
     </g>
    </g>
    <g id="svg_921">
     <g clip-path="url(#svg_923)" id="svg_922">
      <g transform="matrix(2.80413, 0, 0, 2.80413, 82.666, 117.027)" id="svg_966">
       <path stroke-miterlimit="10" stroke="#000000" fill="none" id="svg_969" d="m-6.23524,1170.25673c0,2.6201 -0.12842,5.23389 -0.38522,7.84135c-0.25684,2.60749 -0.64084,5.1961 -1.15201,7.76584c-0.51114,2.56975 -1.14704,5.10826 -1.90762,7.61556c-0.76056,2.50726 -1.64219,4.97122 -2.64487,7.39187c-1.00266,2.42069 -2.12152,4.78638 -3.3566,7.09708c-1.23511,2.31073 -2.5805,4.55536 -4.03616,6.73386c-1.45566,2.17855 -3.01456,4.28051 -4.6767,6.30587c-1.66217,2.02539 -3.41962,3.96442 -5.27231,5.81708c-1.85269,1.85269 -3.79172,3.61014 -5.81708,5.27231c-2.02536,1.66217 -4.12732,3.22107 -6.30587,4.6767c-2.17853,1.45566 -4.42316,2.80105 -6.73386,4.03613c-2.31073,1.23511 -4.67642,2.354 -7.09708,3.35666c-2.42065,1.00268 -4.88461,1.88431 -7.39187,2.6449c-2.50727,0.76059 -5.04578,1.39642 -7.61554,1.90756c-2.56973,0.5112 -5.15833,0.89517 -7.76584,1.15198c-2.60745,0.25683 -5.22125,0.38525 -7.84137,0.38525c-2.62012,0 -5.23392,-0.12842 -7.84137,-0.38525c-2.60748,-0.25681 -5.19611,-0.64078 -7.76587,-1.15198c-2.56976,-0.51114 -5.10828,-1.14697 -7.61557,-1.90756c-2.50726,-0.76059 -4.97122,-1.64222 -7.39191,-2.6449c-2.42065,-1.00266 -4.78634,-2.12155 -7.09707,-3.35663c-2.3107,-1.23511 -4.55533,-2.5805 -6.73389,-4.03616c-2.1785,-1.45563 -4.28042,-3.01453 -6.30578,-4.6767c-2.02536,-1.66217 -3.96442,-3.41962 -5.81711,-5.27231c-1.85269,-1.85266 -3.61011,-3.79169 -5.27228,-5.81708c-1.6622,-2.02536 -3.22112,-4.12732 -4.67677,-6.30587c-1.45563,-2.1785 -2.801,-4.42313 -4.03612,-6.73386c-1.23509,-2.3107 -2.35399,-4.67639 -3.35666,-7.09708c-1.00267,-2.42065 -1.88428,-4.88461 -2.64485,-7.39187c-0.76058,-2.5073 -1.39646,-5.04581 -1.90761,-7.61556c-0.51115,-2.56974 -0.89513,-5.15835 -1.15193,-7.76582c-0.25681,-2.60748 -0.38521,-5.22127 -0.38521,-7.84137c0,-2.6201 0.1284,-5.23389 0.38521,-7.84137c0.2568,-2.6075 0.64078,-5.19612 1.15193,-7.76587c0.51115,-2.56975 1.14703,-5.10826 1.90761,-7.61554c0.76057,-2.50728 1.64218,-4.97125 2.64485,-7.39192c1.00267,-2.42064 2.12157,-4.78633 3.35666,-7.09705c1.23512,-2.31073 2.58049,-4.55536 4.03612,-6.7339c1.45565,-2.17851 3.01457,-4.28045 4.67677,-6.30581c1.66217,-2.02538 3.41959,-3.96441 5.27228,-5.8171c1.85269,-1.85269 3.79175,-3.61012 5.81711,-5.27229c2.02536,-1.66217 4.12728,-3.22109 6.30578,-4.67674c2.17856,-1.45565 4.42319,-2.80103 6.73389,-4.03612c2.31073,-1.23509 4.67642,-2.35399 7.09707,-3.35668c2.42069,-1.00265 4.88465,-1.88427 7.39194,-2.64485c2.50726,-0.76057 5.04578,-1.39644 7.61554,-1.90759c2.56976,-0.51115 5.15839,-0.89513 7.76587,-1.15195c2.60745,-0.2568 5.22125,-0.38521 7.84137,-0.38522c2.62012,0.00001 5.23392,0.12842 7.84137,0.38522c2.60751,0.25682 5.19611,0.6408 7.76584,1.15195c2.56976,0.51115 5.10827,1.14702 7.61554,1.90759c2.50726,0.76058 4.97122,1.6422 7.39187,2.64485c2.42066,1.00269 4.78635,2.12159 7.09711,3.35668c2.3107,1.23509 4.5553,2.58047 6.7338,4.03612c2.17855,1.45565 4.28051,3.01457 6.3059,4.67674c2.02536,1.66217 3.96439,3.4196 5.81708,5.27229c1.85269,1.85269 3.61014,3.79172 5.27231,5.8171c1.66214,2.02536 3.22104,4.1273 4.6767,6.30581c1.45566,2.17854 2.80105,4.42317 4.03613,6.73389c1.23514,2.31073 2.354,4.67642 3.35666,7.09706c1.00265,2.42067 1.88428,4.88464 2.64487,7.39192c0.76059,2.50728 1.39645,5.04579 1.90759,7.61554c0.51117,2.56975 0.89517,5.15839 1.15201,7.76589c0.2568,2.60746 0.38522,5.22125 0.38522,7.84135z"/>
       <path stroke-miterlimit="10" stroke="#000000" fill="none" id="svg_968" d="m113.76476,1170.25673c0,2.6201 -0.12842,5.23389 -0.38525,7.84135c-0.25684,2.60749 -0.64081,5.1961 -1.15198,7.76584c-0.51117,2.56975 -1.14697,5.10826 -1.90753,7.61556c-0.76056,2.50726 -1.64222,4.97122 -2.6449,7.39187c-1.00263,2.42069 -2.12152,4.78638 -3.35663,7.09708c-1.23514,2.31073 -2.58053,4.55536 -4.03619,6.73386c-1.4556,2.17855 -3.0145,4.28051 -4.67667,6.30587c-1.66217,2.02539 -3.41962,3.96442 -5.27231,5.81708c-1.85266,1.85269 -3.79168,3.61014 -5.81708,5.27231c-2.02536,1.66217 -4.12731,3.22107 -6.30587,4.6767c-2.17853,1.45566 -4.42316,2.80105 -6.73389,4.03613c-2.31073,1.23511 -4.67642,2.354 -7.09708,3.35666c-2.42062,1.00268 -4.88458,1.88431 -7.39187,2.6449c-2.5073,0.76059 -5.04581,1.39642 -7.61554,1.90756c-2.56973,0.5112 -5.15836,0.89517 -7.76584,1.15198c-2.60748,0.25683 -5.22128,0.38525 -7.84137,0.38525c-2.62009,0 -5.23389,-0.12842 -7.8414,-0.38525c-2.60748,-0.25681 -5.19611,-0.64078 -7.7659,-1.15198c-2.56973,-0.51114 -5.10822,-1.14697 -7.61548,-1.90756c-2.50729,-0.76059 -4.97125,-1.64222 -7.39194,-2.6449c-2.42062,-1.00266 -4.78628,-2.12155 -7.09698,-3.35663c-2.31076,-1.23511 -4.55539,-2.5805 -6.73392,-4.03616c-2.17849,-1.45563 -4.28045,-3.01453 -6.30584,-4.6767c-2.02536,-1.66217 -3.96439,-3.41962 -5.81708,-5.27231c-1.85269,-1.85266 -3.61011,-3.79169 -5.27231,-5.81708c-1.66217,-2.02536 -3.2211,-4.12732 -4.67676,-6.30587c-1.45563,-2.1785 -2.80099,-4.42313 -4.0361,-6.73386c-1.23514,-2.3107 -2.35404,-4.67639 -3.35669,-7.09708c-1.00266,-2.42065 -1.88425,-4.88461 -2.64484,-7.39187c-0.76056,-2.5073 -1.39642,-5.04581 -1.90759,-7.61556c-0.51114,-2.56974 -0.89511,-5.15835 -1.15192,-7.76582c-0.25683,-2.60748 -0.38525,-5.22127 -0.38525,-7.84137c0,-2.6201 0.12842,-5.23389 0.38522,-7.84137c0.25684,-2.6075 0.64081,-5.19612 1.15195,-7.76587c0.51117,-2.56975 1.14703,-5.10826 1.90759,-7.61554c0.76059,-2.50728 1.64218,-4.97125 2.64484,-7.39192c1.00265,-2.42064 2.12155,-4.78633 3.35669,-7.09705c1.23511,-2.31073 2.58047,-4.55536 4.0361,-6.7339c1.45566,-2.17851 3.01459,-4.28045 4.67676,-6.30581c1.6622,-2.02538 3.41962,-3.96441 5.27231,-5.8171c1.85269,-1.85269 3.79172,-3.61012 5.81708,-5.27229c2.02539,-1.66217 4.12735,-3.22109 6.30584,-4.67674c2.17853,-1.45565 4.42316,-2.80103 6.73389,-4.03612c2.3107,-1.23509 4.67639,-2.35399 7.09701,-3.35668c2.42069,-1.00265 4.88465,-1.88427 7.39194,-2.64485c2.5073,-0.76057 5.04578,-1.39644 7.61551,-1.90759c2.56979,-0.51115 5.15842,-0.89513 7.76587,-1.15195c2.60751,-0.2568 5.22131,-0.38521 7.8414,-0.38522c2.62009,0.00001 5.23389,0.12842 7.84137,0.38522c2.60745,0.25682 5.19608,0.6408 7.76581,1.15195c2.56976,0.51115 5.10827,1.14702 7.61557,1.90759c2.50729,0.76058 4.97128,1.6422 7.3919,2.64485c2.42069,1.00269 4.78635,2.12159 7.09705,3.35668c2.31076,1.23509 4.55539,2.58047 6.73392,4.03612c2.17856,1.45565 4.28048,3.01457 6.30584,4.67674c2.0254,1.66217 3.96442,3.4196 5.81708,5.27229c1.85269,1.85269 3.61014,3.79172 5.27231,5.8171c1.66217,2.02536 3.22107,4.1273 4.67667,6.30581c1.45566,2.17854 2.80105,4.42317 4.03619,6.73389c1.23511,2.31073 2.354,4.67642 3.35663,7.09706c1.00268,2.42067 1.88434,4.88464 2.6449,7.39192c0.76056,2.50728 1.39636,5.04579 1.90753,7.61554c0.51117,2.56975 0.89514,5.15839 1.15198,7.76589c0.25683,2.60746 0.38525,5.22125 0.38525,7.84135z"/>
       <path stroke-miterlimit="10" stroke="#000000" fill="none" id="svg_967" d="m53.76476,1250.25673c0,2.62012 -0.12842,5.23392 -0.38522,7.84137c-0.25684,2.60751 -0.64084,5.19611 -1.15201,7.76584c-0.51114,2.56976 -1.147,5.10827 -1.90759,7.61554c-0.76059,2.50726 -1.64222,4.97122 -2.6449,7.39187c-1.00263,2.42066 -2.12149,4.78635 -3.3566,7.09711c-1.23511,2.3107 -2.5805,4.5553 -4.03616,6.7338c-1.45563,2.17855 -3.01453,4.28051 -4.6767,6.3059c-1.66217,2.02536 -3.41962,3.96439 -5.27231,5.81708c-1.85269,1.85269 -3.79172,3.61014 -5.81708,5.27231c-2.02536,1.66214 -4.12732,3.22104 -6.30587,4.6767c-2.17853,1.45566 -4.42316,2.80105 -6.73386,4.03613c-2.31073,1.23514 -4.67642,2.354 -7.09708,3.35666c-2.42062,1.00265 -4.88461,1.88428 -7.3919,2.64487c-2.50724,0.76059 -5.04575,1.39645 -7.61554,1.90759c-2.5697,0.51117 -5.1583,0.89517 -7.76578,1.15201c-2.60748,0.2568 -5.22128,0.38522 -7.8414,0.38522c-2.62009,0 -5.23386,-0.12842 -7.84131,-0.38522c-2.60751,-0.25684 -5.19617,-0.64084 -7.76593,-1.15201c-2.56973,-0.51114 -5.10824,-1.14704 -7.61554,-1.90762c-2.50729,-0.76056 -4.97128,-1.64219 -7.39194,-2.64487c-2.42065,-1.00266 -4.78634,-2.12152 -7.09704,-3.3566c-2.31073,-1.23511 -4.55536,-2.5805 -6.73392,-4.03616c-2.1785,-1.45566 -4.28042,-3.01456 -6.30578,-4.6767c-2.02536,-1.66217 -3.96439,-3.41962 -5.81711,-5.27231c-1.85269,-1.85269 -3.61011,-3.79172 -5.27228,-5.81708c-1.66214,-2.02536 -3.22107,-4.12732 -4.67676,-6.30587c-1.45566,-2.17853 -2.80102,-4.42316 -4.03613,-6.73386c-1.23508,-2.31073 -2.35397,-4.67642 -3.35666,-7.09708c-1.00266,-2.42065 -1.88428,-4.88461 -2.64487,-7.39187c-0.76056,-2.50727 -1.39642,-5.04578 -1.90759,-7.61554c-0.51114,-2.56973 -0.89511,-5.15833 -1.15192,-7.76584c-0.2568,-2.60745 -0.38519,-5.22125 -0.38522,-7.84137c0.00003,-2.62012 0.12842,-5.23392 0.38522,-7.84137c0.25681,-2.60748 0.64078,-5.19611 1.15192,-7.76587c0.51117,-2.56976 1.14703,-5.10828 1.90759,-7.61557c0.76059,-2.50726 1.64221,-4.97122 2.64487,-7.39191c1.00269,-2.42065 2.12158,-4.78634 3.35666,-7.09707c1.23511,-2.3107 2.58047,-4.55533 4.03613,-6.73389c1.45569,-2.1785 3.01462,-4.28042 4.67676,-6.30578c1.66217,-2.02536 3.41959,-3.96442 5.27228,-5.81711c1.85272,-1.85269 3.79175,-3.61011 5.81711,-5.27225c2.02536,-1.6622 4.12728,-3.22112 6.30578,-4.67679c2.17856,-1.45564 4.42319,-2.80101 6.73392,-4.03612c2.3107,-1.23509 4.67639,-2.35398 7.09704,-3.35666c2.42066,-1.00267 4.88465,-1.88427 7.39194,-2.64485c2.5073,-0.76057 5.04581,-1.39644 7.61554,-1.90759c2.56976,-0.51115 5.15839,-0.89513 7.7659,-1.15193c2.60748,-0.25682 5.22125,-0.38522 7.84134,-0.38524c2.62012,0.00002 5.23392,0.12842 7.8414,0.38524c2.60748,0.2568 5.19608,0.64078 7.76578,1.15193c2.56976,0.51115 5.10827,1.14702 7.61554,1.90759c2.50726,0.76058 4.97122,1.64218 7.39187,2.64484c2.42069,1.00267 4.78638,2.12157 7.09711,3.35666c2.3107,1.23512 4.55533,2.58049 6.73383,4.03612c2.17855,1.45567 4.28051,3.0146 6.30587,4.67677c2.02539,1.66217 3.96442,3.41959 5.81711,5.27228c1.85269,1.85269 3.61014,3.79175 5.27228,5.81711c1.6622,2.02536 3.2211,4.12728 4.67673,6.30578c1.45566,2.17856 2.80105,4.42319 4.03616,6.73389c1.23511,2.31073 2.35397,4.67642 3.3566,7.09707c1.00268,2.42069 1.88431,4.88465 2.6449,7.39194c0.76059,2.50726 1.39645,5.04578 1.90759,7.61554c0.51117,2.56976 0.89517,5.15839 1.15204,7.76587c0.2568,2.60745 0.38519,5.22125 0.38519,7.84137z"/>
      </g>
      <g transform="matrix(0.0394499, 0, 0, -0.0394499, 902.874, 758.391)" id="svg_963">
       <path fill-rule="nonzero" fill="#000000" id="svg_965" d="m-28852.5433,-65836.42957c0.66667,2 1.33333,4.66666 2,8c0.66667,3.33334 2.33333,10.66666 5,22c2.66667,11.33334 6,21.66666 10,31c4,9.33334 9,20.33334 15,33c6,12.66666 12.66666,22.66666 20,30c7.33334,7.33334 16,14.66666 26,22c10,7.33334 21,10.33334 33,9c50,0 82,-21.33334 96,-64l10,9c41.33334,36.66666 80.66666,55 118,55c43.33334,0 77.33334,-15.66666 102,-47c24.66666,-31.33334 37,-69.33334 37,-114c0,-72 -25.33334,-138.33333 -76,-199c-50.66666,-60.66667 -108,-91.33333 -172,-92c-14.66667,0 -27.66667,2 -39,6c-7.33333,3.33333 -15,8.33333 -23,15c-8,6.66667 -14.33333,12.33333 -19,17l-7,8c-0.66667,-0.66667 -8,-29.66666 -22,-87c-14,-57.33334 -21,-86.33333 -21,-87c0,-4 2.66666,-6.33333 8,-7c5.33333,-0.66667 17.66667,-1.66667 37,-3l25,0c4,-4.66667 6,-7.66667 6,-9c0,-1.33333 -1,-7.33333 -3,-18c-2,-8 -4,-13 -6,-15c-2,-2 -6.33333,-3.33333 -13,-4c-1.33333,0 -5,0 -11,0c-6,0 -17.33333,0.33333 -34,1c-16.66667,0.66667 -37.33333,1 -62,1c-46.66667,0 -76.33333,-0.66667 -89,-2l-8,0c-4.66667,4.66667 -7,8.33333 -7,11c1.33333,18 5.66667,29.66667 13,35l20,0c22.66667,0.66667 35.66667,4.66667 39,12c2,4 22.33333,83.66666 61,239c38.66667,155.33334 59,237.66666 61,247c0.66667,3.33334 1,8 1,14c0,27.33334 -8.33333,41 -25,41c-14.66666,0 -27,-9.33334 -37,-28c-10,-18.66666 -17.66666,-39 -23,-61c-5.33334,-22 -9.33333,-34 -12,-36c-1.33333,-1.33334 -6.66666,-2 -16,-2l-14,0c-4,4 -6,7 -6,9zm155,-185c14.66667,-50.66667 39.33333,-76 74,-76c20,0 39.33334,7.66666 58,23c18.66666,15.33334 34,34.66666 46,58c12,22.66667 24,58.66666 36,108c12,49.33334 18.33334,86 19,110l0,6c0,49.33334 -20.33334,74 -61,74c-7.33334,0 -14.66666,-1 -22,-3c-7.33334,-2 -14.66666,-5 -22,-9c-7.33334,-4 -14,-8.33334 -20,-13c-6,-4.66666 -11.66666,-9.66666 -17,-15c-5.33334,-5.33334 -10.33334,-10.33334 -15,-15c-4.66667,-4.66666 -8.33333,-9.33334 -11,-14c-2.66667,-4.66666 -5.33333,-8 -8,-10l-3,-4c0,-0.66666 -1,-5.33334 -3,-14c-2,-8.66666 -5.66667,-23.33334 -11,-44c-5.33333,-20.66667 -10,-38 -14,-52c-17.33333,-70.66667 -26,-107.33334 -26,-110z"/>
       <path stroke-opacity="0.0284" stroke-miterlimit="10" stroke="#000000" fill="none" id="svg_964" d="m-28852.5433,-65836.42957c0.66667,2 1.33333,4.66666 2,8c0.66667,3.33334 2.33333,10.66666 5,22c2.66667,11.33334 6,21.66666 10,31c4,9.33334 9,20.33334 15,33c6,12.66666 12.66666,22.66666 20,30c7.33334,7.33334 16,14.66666 26,22c10,7.33334 21,10.33334 33,9c50,0 82,-21.33334 96,-64l10,9c41.33334,36.66666 80.66666,55 118,55c43.33334,0 77.33334,-15.66666 102,-47c24.66666,-31.33334 37,-69.33334 37,-114c0,-72 -25.33334,-138.33333 -76,-199c-50.66666,-60.66667 -108,-91.33333 -172,-92c-14.66667,0 -27.66667,2 -39,6c-7.33333,3.33333 -15,8.33333 -23,15c-8,6.66667 -14.33333,12.33333 -19,17l-7,8c-0.66667,-0.66667 -8,-29.66666 -22,-87c-14,-57.33334 -21,-86.33333 -21,-87c0,-4 2.66666,-6.33333 8,-7c5.33333,-0.66667 17.66667,-1.66667 37,-3l25,0c4,-4.66667 6,-7.66667 6,-9c0,-1.33333 -1,-7.33333 -3,-18c-2,-8 -4,-13 -6,-15c-2,-2 -6.33333,-3.33333 -13,-4c-1.33333,0 -5,0 -11,0c-6,0 -17.33333,0.33333 -34,1c-16.66667,0.66667 -37.33333,1 -62,1c-46.66667,0 -76.33333,-0.66667 -89,-2l-8,0c-4.66667,4.66667 -7,8.33333 -7,11c1.33333,18 5.66667,29.66667 13,35l20,0c22.66667,0.66667 35.66667,4.66667 39,12c2,4 22.33333,83.66666 61,239c38.66667,155.33334 59,237.66666 61,247c0.66667,3.33334 1,8 1,14c0,27.33334 -8.33333,41 -25,41c-14.66666,0 -27,-9.33334 -37,-28c-10,-18.66666 -17.66666,-39 -23,-61c-5.33334,-22 -9.33333,-34 -12,-36c-1.33333,-1.33334 -6.66666,-2 -16,-2l-14,0c-4,4 -6,7 -6,9zm155,-185c14.66667,-50.66667 39.33333,-76 74,-76c20,0 39.33334,7.66666 58,23c18.66666,15.33334 34,34.66666 46,58c12,22.66667 24,58.66666 36,108c12,49.33334 18.33334,86 19,110l0,6c0,49.33334 -20.33334,74 -61,74c-7.33334,0 -14.66666,-1 -22,-3c-7.33334,-2 -14.66666,-5 -22,-9c-7.33334,-4 -14,-8.33334 -20,-13c-6,-4.66666 -11.66666,-9.66666 -17,-15c-5.33334,-5.33334 -10.33334,-10.33334 -15,-15c-4.66667,-4.66666 -8.33333,-9.33334 -11,-14c-2.66667,-4.66666 -5.33333,-8 -8,-10l-3,-4c0,-0.66666 -1,-5.33334 -3,-14c-2,-8.66666 -5.66667,-23.33334 -11,-44c-5.33333,-20.66667 -10,-38 -14,-52c-17.33333,-70.66667 -26,-107.33334 -26,-110z"/>
      </g>
      <g transform="matrix(0.027891, 0, 0, -0.027891, 924.019, 764.308)" id="svg_960">
       <path fill-rule="nonzero" fill="#000000" id="svg_962" d="m-40746.35957,-92941.77902c37.33334,54 88.33333,81 153,81c32,0 64,-8.66669 96,-26c32,-17.33331 58,-48 78,-92c24.66666,-55.33334 37,-131.33331 37,-228c0,-103.33334 -14.33334,-182.33333 -43,-237c-13.33334,-28 -31.66666,-50.33333 -55,-67c-23.33334,-16.66667 -43.66666,-27 -61,-31c-17.33334,-4 -34.33334,-6.33333 -51,-7c-17.33333,0 -34.66667,2 -52,6c-17.33333,4 -37.66667,14.66667 -61,32c-23.33334,17.33334 -41.66666,39.66666 -55,67c-28.66667,54.66667 -43,133.66666 -43,237c0,116 19,204.33331 57,265zm225,12c-20,21.33331 -43.66666,32 -71,32c-28,0 -52,-10.66669 -72,-32c-16.66667,-17.33331 -27.66667,-41.33331 -33,-72c-5.33333,-30.66666 -8,-94.66666 -8,-192c0,-105.33334 2.66667,-174.66666 8,-208c5.33333,-33.33334 17.33333,-59.66666 36,-79c18.66667,-20 41.66667,-30 69,-30c26.66666,0 49.33334,10 68,30c19.33334,20 31.33334,48 36,84c4.66666,36 7.33334,103.66666 8,203c0,96.66669 -2.66666,160.33334 -8,191c-5.33334,30.66669 -16.33334,55 -33,73z"/>
       <path stroke-opacity="0.0201" stroke-miterlimit="10" stroke="#000000" fill="none" id="svg_961" d="m-40746.35957,-92941.77902c37.33334,54 88.33333,81 153,81c32,0 64,-8.66669 96,-26c32,-17.33331 58,-48 78,-92c24.66666,-55.33334 37,-131.33331 37,-228c0,-103.33334 -14.33334,-182.33333 -43,-237c-13.33334,-28 -31.66666,-50.33333 -55,-67c-23.33334,-16.66667 -43.66666,-27 -61,-31c-17.33334,-4 -34.33334,-6.33333 -51,-7c-17.33333,0 -34.66667,2 -52,6c-17.33333,4 -37.66667,14.66667 -61,32c-23.33334,17.33334 -41.66666,39.66666 -55,67c-28.66667,54.66667 -43,133.66666 -43,237c0,116 19,204.33331 57,265zm225,12c-20,21.33331 -43.66666,32 -71,32c-28,0 -52,-10.66669 -72,-32c-16.66667,-17.33331 -27.66667,-41.33331 -33,-72c-5.33333,-30.66666 -8,-94.66666 -8,-192c0,-105.33334 2.66667,-174.66666 8,-208c5.33333,-33.33334 17.33333,-59.66666 36,-79c18.66667,-20 41.66667,-30 69,-30c26.66666,0 49.33334,10 68,30c19.33334,20 31.33334,48 36,84c4.66666,36 7.33334,103.66666 8,203c0,96.66669 -2.66666,160.33334 -8,191c-5.33334,30.66669 -16.33334,55 -33,73z"/>
      </g>
      <g transform="matrix(0.0394499, 0, 0, -0.0394499, 1351.53, 758.391)" id="svg_957">
       <path fill-rule="nonzero" fill="#000000" id="svg_959" d="m-28852.548,-65836.42957c0.66667,2 1.33333,4.66666 2,8c0.66667,3.33334 2.33333,10.66666 5,22c2.66667,11.33334 6,21.66666 10,31c4,9.33334 9,20.33334 15,33c6,12.66666 12.66666,22.66666 20,30c7.33334,7.33334 16,14.66666 26,22c10,7.33334 21,10.33334 33,9c50,0 82,-21.33334 96,-64l10,9c41.33334,36.66666 80.66666,55 118,55c43.33334,0 77.33334,-15.66666 102,-47c24.66666,-31.33334 37,-69.33334 37,-114c0,-72 -25.33334,-138.33333 -76,-199c-50.66666,-60.66667 -108,-91.33333 -172,-92c-14.66667,0 -27.66667,2 -39,6c-7.33333,3.33333 -15,8.33333 -23,15c-8,6.66667 -14.33333,12.33333 -19,17l-7,8c-0.66667,-0.66667 -8,-29.66666 -22,-87c-14,-57.33334 -21,-86.33333 -21,-87c0,-4 2.66666,-6.33333 8,-7c5.33333,-0.66667 17.66667,-1.66667 37,-3l25,0c4,-4.66667 6,-7.66667 6,-9c0,-1.33333 -1,-7.33333 -3,-18c-2,-8 -4,-13 -6,-15c-2,-2 -6.33333,-3.33333 -13,-4c-1.33333,0 -5,0 -11,0c-6,0 -17.33333,0.33333 -34,1c-16.66667,0.66667 -37.33333,1 -62,1c-46.66667,0 -76.33333,-0.66667 -89,-2l-8,0c-4.66667,4.66667 -7,8.33333 -7,11c1.33333,18 5.66667,29.66667 13,35l20,0c22.66667,0.66667 35.66667,4.66667 39,12c2,4 22.33333,83.66666 61,239c38.66667,155.33334 59,237.66666 61,247c0.66667,3.33334 1,8 1,14c0,27.33334 -8.33333,41 -25,41c-14.66666,0 -27,-9.33334 -37,-28c-10,-18.66666 -17.66666,-39 -23,-61c-5.33334,-22 -9.33333,-34 -12,-36c-1.33333,-1.33334 -6.66666,-2 -16,-2l-14,0c-4,4 -6,7 -6,9zm155,-185c14.66667,-50.66667 39.33333,-76 74,-76c20,0 39.33334,7.66666 58,23c18.66666,15.33334 34,34.66666 46,58c12,22.66667 24,58.66666 36,108c12,49.33334 18.33334,86 19,110l0,6c0,49.33334 -20.33334,74 -61,74c-7.33334,0 -14.66666,-1 -22,-3c-7.33334,-2 -14.66666,-5 -22,-9c-7.33334,-4 -14,-8.33334 -20,-13c-6,-4.66666 -11.66666,-9.66666 -17,-15c-5.33334,-5.33334 -10.33334,-10.33334 -15,-15c-4.66667,-4.66666 -8.33333,-9.33334 -11,-14c-2.66667,-4.66666 -5.33333,-8 -8,-10l-3,-4c0,-0.66666 -1,-5.33334 -3,-14c-2,-8.66666 -5.66667,-23.33334 -11,-44c-5.33333,-20.66667 -10,-38 -14,-52c-17.33333,-70.66667 -26,-107.33334 -26,-110z"/>
       <path stroke-opacity="0.0284" stroke-miterlimit="10" stroke="#000000" fill="none" id="svg_958" d="m-28852.548,-65836.42957c0.66667,2 1.33333,4.66666 2,8c0.66667,3.33334 2.33333,10.66666 5,22c2.66667,11.33334 6,21.66666 10,31c4,9.33334 9,20.33334 15,33c6,12.66666 12.66666,22.66666 20,30c7.33334,7.33334 16,14.66666 26,22c10,7.33334 21,10.33334 33,9c50,0 82,-21.33334 96,-64l10,9c41.33334,36.66666 80.66666,55 118,55c43.33334,0 77.33334,-15.66666 102,-47c24.66666,-31.33334 37,-69.33334 37,-114c0,-72 -25.33334,-138.33333 -76,-199c-50.66666,-60.66667 -108,-91.33333 -172,-92c-14.66667,0 -27.66667,2 -39,6c-7.33333,3.33333 -15,8.33333 -23,15c-8,6.66667 -14.33333,12.33333 -19,17l-7,8c-0.66667,-0.66667 -8,-29.66666 -22,-87c-14,-57.33334 -21,-86.33333 -21,-87c0,-4 2.66666,-6.33333 8,-7c5.33333,-0.66667 17.66667,-1.66667 37,-3l25,0c4,-4.66667 6,-7.66667 6,-9c0,-1.33333 -1,-7.33333 -3,-18c-2,-8 -4,-13 -6,-15c-2,-2 -6.33333,-3.33333 -13,-4c-1.33333,0 -5,0 -11,0c-6,0 -17.33333,0.33333 -34,1c-16.66667,0.66667 -37.33333,1 -62,1c-46.66667,0 -76.33333,-0.66667 -89,-2l-8,0c-4.66667,4.66667 -7,8.33333 -7,11c1.33333,18 5.66667,29.66667 13,35l20,0c22.66667,0.66667 35.66667,4.66667 39,12c2,4 22.33333,83.66666 61,239c38.66667,155.33334 59,237.66666 61,247c0.66667,3.33334 1,8 1,14c0,27.33334 -8.33333,41 -25,41c-14.66666,0 -27,-9.33334 -37,-28c-10,-18.66666 -17.66666,-39 -23,-61c-5.33334,-22 -9.33333,-34 -12,-36c-1.33333,-1.33334 -6.66666,-2 -16,-2l-14,0c-4,4 -6,7 -6,9zm155,-185c14.66667,-50.66667 39.33333,-76 74,-76c20,0 39.33334,7.66666 58,23c18.66666,15.33334 34,34.66666 46,58c12,22.66667 24,58.66666 36,108c12,49.33334 18.33334,86 19,110l0,6c0,49.33334 -20.33334,74 -61,74c-7.33334,0 -14.66666,-1 -22,-3c-7.33334,-2 -14.66666,-5 -22,-9c-7.33334,-4 -14,-8.33334 -20,-13c-6,-4.66666 -11.66666,-9.66666 -17,-15c-5.33334,-5.33334 -10.33334,-10.33334 -15,-15c-4.66667,-4.66666 -8.33333,-9.33334 -11,-14c-2.66667,-4.66666 -5.33333,-8 -8,-10l-3,-4c0,-0.66666 -1,-5.33334 -3,-14c-2,-8.66666 -5.66667,-23.33334 -11,-44c-5.33333,-20.66667 -10,-38 -14,-52c-17.33333,-70.66667 -26,-107.33334 -26,-110z"/>
      </g>
      <g transform="matrix(0.027891, 0, 0, -0.027891, 1372.68, 764.308)" id="svg_954">
       <path fill-rule="nonzero" fill="#000000" id="svg_956" d="m-40629.36615,-92948.77902l-13,-5c-9.33333,-3.33331 -22.66667,-6.66669 -40,-10c-17.33333,-3.33331 -36.66666,-5.66669 -58,-7l-19,0l0,46l19,0c31.33333,1.33331 60.33333,6.33331 87,15c26.66667,8.66669 45.33333,16.66669 56,24c10.66667,7.33331 20,14.66669 28,22c1.33334,2 5.33334,3 12,3c6,0 11.66666,-2 17,-6l0,-299l1,-300c4.66666,-4.66667 8.66666,-7.66667 12,-9c3.33334,-1.33333 11.33334,-2.66667 24,-4c12.66666,-1.33333 33.33334,-2 62,-2l26,0l0,-46l-11,0c-14,2 -67,3 -159,3c-90.66667,0 -143,-1 -157,-3l-12,0l0,46l26,0c14.66667,0 27.33333,0 38,0c10.66667,0 19,0.33333 25,1c6,0.66667 11.33333,1.66667 16,3c4.66667,1.33333 7.33333,2 8,2c0.66667,0 2.66667,1.66667 6,5c3.33333,3.33333 5.33333,4.66667 6,4l0,517z"/>
       <path stroke-opacity="0.0201" stroke-miterlimit="10" stroke="#000000" fill="none" id="svg_955" d="m-40629.36615,-92948.77902l-13,-5c-9.33333,-3.33331 -22.66667,-6.66669 -40,-10c-17.33333,-3.33331 -36.66666,-5.66669 -58,-7l-19,0l0,46l19,0c31.33333,1.33331 60.33333,6.33331 87,15c26.66667,8.66669 45.33333,16.66669 56,24c10.66667,7.33331 20,14.66669 28,22c1.33334,2 5.33334,3 12,3c6,0 11.66666,-2 17,-6l0,-299l1,-300c4.66666,-4.66667 8.66666,-7.66667 12,-9c3.33334,-1.33333 11.33334,-2.66667 24,-4c12.66666,-1.33333 33.33334,-2 62,-2l26,0l0,-46l-11,0c-14,2 -67,3 -159,3c-90.66667,0 -143,-1 -157,-3l-12,0l0,46l26,0c14.66667,0 27.33333,0 38,0c10.66667,0 19,0.33333 25,1c6,0.66667 11.33333,1.66667 16,3c4.66667,1.33333 7.33333,2 8,2c0.66667,0 2.66667,1.66667 6,5c3.33333,3.33333 5.33333,4.66667 6,4l0,517z"/>
      </g>
      <g transform="matrix(0.0394499, 0, 0, -0.0394499, 1127.2, 1094.89)" id="svg_951">
       <path fill-rule="nonzero" fill="#000000" id="svg_953" d="m-28852.548,-65836.44183c0.66667,2 1.33333,4.66666 2,8c0.66667,3.33334 2.33333,10.66666 5,22c2.66667,11.33334 6,21.66666 10,31c4,9.33334 9,20.33334 15,33c6,12.66666 12.66666,22.66666 20,30c7.33334,7.33334 16,14.66666 26,22c10,7.33334 21,10.33334 33,9c50,0 82,-21.33334 96,-64l10,9c41.33334,36.66666 80.66666,55 118,55c43.33334,0 77.33334,-15.66666 102,-47c24.66666,-31.33334 37,-69.33334 37,-114c0,-72 -25.33334,-138.33333 -76,-199c-50.66666,-60.66667 -108,-91.33333 -172,-92c-14.66667,0 -27.66667,2 -39,6c-7.33333,3.33333 -15,8.33333 -23,15c-8,6.66667 -14.33333,12.33333 -19,17l-7,8c-0.66667,-0.66667 -8,-29.66666 -22,-87c-14,-57.33334 -21,-86.33333 -21,-87c0,-4 2.66666,-6.33333 8,-7c5.33333,-0.66667 17.66667,-1.66667 37,-3l25,0c4,-4.66667 6,-7.66667 6,-9c0,-1.33333 -1,-7.33333 -3,-18c-2,-8 -4,-13 -6,-15c-2,-2 -6.33333,-3.33333 -13,-4c-1.33333,0 -5,0 -11,0c-6,0 -17.33333,0.33333 -34,1c-16.66667,0.66667 -37.33333,1 -62,1c-46.66667,0 -76.33333,-0.66667 -89,-2l-8,0c-4.66667,4.66667 -7,8.33333 -7,11c1.33333,18 5.66667,29.66667 13,35l20,0c22.66667,0.66667 35.66667,4.66667 39,12c2,4 22.33333,83.66666 61,239c38.66667,155.33334 59,237.66666 61,247c0.66667,3.33334 1,8 1,14c0,27.33334 -8.33333,41 -25,41c-14.66666,0 -27,-9.33334 -37,-28c-10,-18.66666 -17.66666,-39 -23,-61c-5.33334,-22 -9.33333,-34 -12,-36c-1.33333,-1.33334 -6.66666,-2 -16,-2l-14,0c-4,4 -6,7 -6,9zm155,-185c14.66667,-50.66667 39.33333,-76 74,-76c20,0 39.33334,7.66666 58,23c18.66666,15.33334 34,34.66666 46,58c12,22.66667 24,58.66666 36,108c12,49.33334 18.33334,86 19,110l0,6c0,49.33334 -20.33334,74 -61,74c-7.33334,0 -14.66666,-1 -22,-3c-7.33334,-2 -14.66666,-5 -22,-9c-7.33334,-4 -14,-8.33334 -20,-13c-6,-4.66666 -11.66666,-9.66666 -17,-15c-5.33334,-5.33334 -10.33334,-10.33334 -15,-15c-4.66667,-4.66666 -8.33333,-9.33334 -11,-14c-2.66667,-4.66666 -5.33333,-8 -8,-10l-3,-4c0,-0.66666 -1,-5.33334 -3,-14c-2,-8.66666 -5.66667,-23.33334 -11,-44c-5.33333,-20.66667 -10,-38 -14,-52c-17.33333,-70.66667 -26,-107.33334 -26,-110z"/>
       <path stroke-opacity="0.0284" stroke-miterlimit="10" stroke="#000000" fill="none" id="svg_952" d="m-28852.548,-65836.44183c0.66667,2 1.33333,4.66666 2,8c0.66667,3.33334 2.33333,10.66666 5,22c2.66667,11.33334 6,21.66666 10,31c4,9.33334 9,20.33334 15,33c6,12.66666 12.66666,22.66666 20,30c7.33334,7.33334 16,14.66666 26,22c10,7.33334 21,10.33334 33,9c50,0 82,-21.33334 96,-64l10,9c41.33334,36.66666 80.66666,55 118,55c43.33334,0 77.33334,-15.66666 102,-47c24.66666,-31.33334 37,-69.33334 37,-114c0,-72 -25.33334,-138.33333 -76,-199c-50.66666,-60.66667 -108,-91.33333 -172,-92c-14.66667,0 -27.66667,2 -39,6c-7.33333,3.33333 -15,8.33333 -23,15c-8,6.66667 -14.33333,12.33333 -19,17l-7,8c-0.66667,-0.66667 -8,-29.66666 -22,-87c-14,-57.33334 -21,-86.33333 -21,-87c0,-4 2.66666,-6.33333 8,-7c5.33333,-0.66667 17.66667,-1.66667 37,-3l25,0c4,-4.66667 6,-7.66667 6,-9c0,-1.33333 -1,-7.33333 -3,-18c-2,-8 -4,-13 -6,-15c-2,-2 -6.33333,-3.33333 -13,-4c-1.33333,0 -5,0 -11,0c-6,0 -17.33333,0.33333 -34,1c-16.66667,0.66667 -37.33333,1 -62,1c-46.66667,0 -76.33333,-0.66667 -89,-2l-8,0c-4.66667,4.66667 -7,8.33333 -7,11c1.33333,18 5.66667,29.66667 13,35l20,0c22.66667,0.66667 35.66667,4.66667 39,12c2,4 22.33333,83.66666 61,239c38.66667,155.33334 59,237.66666 61,247c0.66667,3.33334 1,8 1,14c0,27.33334 -8.33333,41 -25,41c-14.66666,0 -27,-9.33334 -37,-28c-10,-18.66666 -17.66666,-39 -23,-61c-5.33334,-22 -9.33333,-34 -12,-36c-1.33333,-1.33334 -6.66666,-2 -16,-2l-14,0c-4,4 -6,7 -6,9zm155,-185c14.66667,-50.66667 39.33333,-76 74,-76c20,0 39.33334,7.66666 58,23c18.66666,15.33334 34,34.66666 46,58c12,22.66667 24,58.66666 36,108c12,49.33334 18.33334,86 19,110l0,6c0,49.33334 -20.33334,74 -61,74c-7.33334,0 -14.66666,-1 -22,-3c-7.33334,-2 -14.66666,-5 -22,-9c-7.33334,-4 -14,-8.33334 -20,-13c-6,-4.66666 -11.66666,-9.66666 -17,-15c-5.33334,-5.33334 -10.33334,-10.33334 -15,-15c-4.66667,-4.66666 -8.33333,-9.33334 -11,-14c-2.66667,-4.66666 -5.33333,-8 -8,-10l-3,-4c0,-0.66666 -1,-5.33334 -3,-14c-2,-8.66666 -5.66667,-23.33334 -11,-44c-5.33333,-20.66667 -10,-38 -14,-52c-17.33333,-70.66667 -26,-107.33334 -26,-110z"/>
      </g>
      <g transform="matrix(0.027891, 0, 0, -0.027891, 1148.35, 1100.8)" id="svg_948">
       <path fill-rule="nonzero" fill="#000000" id="svg_950" d="m-40733.36615,-93097.78415c-18,0 -32.33334,6 -43,18c-10.66667,12 -16,26.66666 -16,44c0,47.33331 17.66666,88.33331 53,123c35.33334,34.66669 79.33333,52 132,52c60.66666,0 111.33334,-18.66669 152,-56c40.66666,-37.33331 61.33334,-85.66669 62,-145c0,-28.66666 -6.66666,-56 -20,-82c-13.33334,-26 -29.33334,-48.66666 -48,-68c-18.66666,-19.33334 -45.33334,-44 -80,-74c-24,-20.66667 -57.33333,-51.33333 -100,-92l-59,-56l76,-1c104.66669,0 160.33334,1.66666 167,5c4.66666,1.33334 12.66666,31 24,89l0,3l40,0l0,-3c-0.66666,-2 -5,-32.33333 -13,-91c-8,-58.66667 -13,-89.33333 -15,-92l0,-3l-371,0l0,19l0,12c0,4.66667 2,9.66667 6,15c4,5.33333 14,17 30,35c19.33334,21.33334 36,40 50,56c6,6.66667 17.33333,19 34,37c16.66667,18 28,30.33333 34,37c6,6.66667 15.66667,17.66667 29,33c13.33333,15.33334 22.66667,26.66666 28,34c5.33334,7.33334 13,17.33334 23,30c10,12.66666 17,23.33334 21,32c4,8.66666 9,18.33334 15,29c6,10.66666 10.33334,21.33334 13,32c2.66666,10.66666 5,20.66666 7,30c2,9.33334 3,20.33334 3,33c0,42 -11.33334,78.33331 -34,109c-22.66666,30.66669 -55,46 -97,46c-22,0 -41.33333,-5.66669 -58,-17c-16.66667,-11.33331 -28.33334,-22.33331 -35,-33c-6.66666,-10.66669 -10,-17 -10,-19c0,-0.66669 1.66666,-1 5,-1c12,0 24.33333,-4.66669 37,-14c12.66667,-9.33331 19,-24.66666 19,-46c0,-16.66666 -5.33333,-30.66666 -16,-42c-10.66667,-11.33334 -25.66667,-17.33334 -45,-18z"/>
       <path stroke-opacity="0.0201" stroke-miterlimit="10" stroke="#000000" fill="none" id="svg_949" d="m-40733.36615,-93097.78415c-18,0 -32.33334,6 -43,18c-10.66667,12 -16,26.66666 -16,44c0,47.33331 17.66666,88.33331 53,123c35.33334,34.66669 79.33333,52 132,52c60.66666,0 111.33334,-18.66669 152,-56c40.66666,-37.33331 61.33334,-85.66669 62,-145c0,-28.66666 -6.66666,-56 -20,-82c-13.33334,-26 -29.33334,-48.66666 -48,-68c-18.66666,-19.33334 -45.33334,-44 -80,-74c-24,-20.66667 -57.33333,-51.33333 -100,-92l-59,-56l76,-1c104.66669,0 160.33334,1.66666 167,5c4.66666,1.33334 12.66666,31 24,89l0,3l40,0l0,-3c-0.66666,-2 -5,-32.33333 -13,-91c-8,-58.66667 -13,-89.33333 -15,-92l0,-3l-371,0l0,19l0,12c0,4.66667 2,9.66667 6,15c4,5.33333 14,17 30,35c19.33334,21.33334 36,40 50,56c6,6.66667 17.33333,19 34,37c16.66667,18 28,30.33333 34,37c6,6.66667 15.66667,17.66667 29,33c13.33333,15.33334 22.66667,26.66666 28,34c5.33334,7.33334 13,17.33334 23,30c10,12.66666 17,23.33334 21,32c4,8.66666 9,18.33334 15,29c6,10.66666 10.33334,21.33334 13,32c2.66666,10.66666 5,20.66666 7,30c2,9.33334 3,20.33334 3,33c0,42 -11.33334,78.33331 -34,109c-22.66666,30.66669 -55,46 -97,46c-22,0 -41.33333,-5.66669 -58,-17c-16.66667,-11.33331 -28.33334,-22.33331 -35,-33c-6.66666,-10.66669 -10,-17 -10,-19c0,-0.66669 1.66666,-1 5,-1c12,0 24.33333,-4.66669 37,-14c12.66667,-9.33331 19,-24.66666 19,-46c0,-16.66666 -5.33333,-30.66666 -16,-42c-10.66667,-11.33334 -25.66667,-17.33334 -45,-18z"/>
      </g>
      <g transform="matrix(0.0394479, 0, 0, -0.0394479, 1017.86, 926.63)" id="svg_945">
       <path fill-rule="nonzero" fill="#000000" id="svg_947" d="m-28746.00188,-65837.7742c0,21.33334 5.33333,43 16,65c10.66667,22 29.33333,42.33334 56,61c26.66667,18.66666 59,27.66666 97,27c41.33334,0 71.33334,-9 90,-27c18.66666,-18 28.33334,-38 29,-60c0,-21.33334 -5.66666,-37 -17,-47c-11.33334,-10 -24,-15.33334 -38,-16c-8.66666,0 -16.66666,2.66666 -24,8c-7.33334,5.33334 -11.33334,14 -12,26c0,10.66666 3,20 9,28c6,8 11.66666,14 17,18c5.33334,4 9.66666,6 13,6c0.66666,0 1,0.33334 1,1c0,2 -2.33334,5 -7,9c-4.66666,4 -13,7.66666 -25,11c-12,3.33334 -25,5.33334 -39,6c-32,0 -55.33333,-8.66666 -70,-26c-14.66667,-17.33334 -22.33333,-35 -23,-53c0,-16.66666 6.33333,-28.33334 19,-35c12.66667,-6.66666 31,-12.33334 55,-17c24,-4.66666 41.33334,-9.66666 52,-15c44,-19.33333 66,-51.33333 66,-96c0,-18.66667 -3.66666,-37.33333 -11,-56c-7.33334,-18.66667 -18.33334,-37.33333 -33,-56c-14.66666,-18.66667 -35.66666,-33.33333 -63,-44c-27.33334,-10.66667 -58.66666,-16.33333 -94,-17c-51.33334,0 -87.66666,9.66667 -109,29c-21.33334,19.33334 -32.33333,42 -33,68c0,26 7,44.66667 21,56c14,11.33333 28.66666,17 44,17c10,0 19.33333,-3 28,-9c8.66667,-6 13.33333,-16.33333 14,-31c0,-17.33334 -6,-32 -18,-44c-12,-12 -22.33334,-18 -31,-18c-1.33334,-0.66667 -2.33334,-1 -3,-1c-0.66666,0 -1,-0.66667 -1,-2c0.66666,-2 3.33334,-4.66667 8,-8c4.66666,-3.33333 15,-7.66667 31,-13c16,-5.33333 34.33333,-7.66667 55,-7c24,0 44.66667,3.66667 62,11c17.33334,7.33333 30,16.66666 38,28c8,11.33334 13.66666,21.66666 17,31c3.33334,9.33334 5,17.66666 5,25c0,18.66667 -7,32.66667 -21,42c-14,9.33333 -30,15 -48,17c-18,2 -37.66667,7 -59,15c-21.33333,8 -37,19.66667 -47,35c-11.33333,16.66667 -17,36 -17,58z"/>
       <path stroke-opacity="0.0284" stroke-miterlimit="10" stroke="#000000" fill="none" id="svg_946" d="m-28746.00188,-65837.7742c0,21.33334 5.33333,43 16,65c10.66667,22 29.33333,42.33334 56,61c26.66667,18.66666 59,27.66666 97,27c41.33334,0 71.33334,-9 90,-27c18.66666,-18 28.33334,-38 29,-60c0,-21.33334 -5.66666,-37 -17,-47c-11.33334,-10 -24,-15.33334 -38,-16c-8.66666,0 -16.66666,2.66666 -24,8c-7.33334,5.33334 -11.33334,14 -12,26c0,10.66666 3,20 9,28c6,8 11.66666,14 17,18c5.33334,4 9.66666,6 13,6c0.66666,0 1,0.33334 1,1c0,2 -2.33334,5 -7,9c-4.66666,4 -13,7.66666 -25,11c-12,3.33334 -25,5.33334 -39,6c-32,0 -55.33333,-8.66666 -70,-26c-14.66667,-17.33334 -22.33333,-35 -23,-53c0,-16.66666 6.33333,-28.33334 19,-35c12.66667,-6.66666 31,-12.33334 55,-17c24,-4.66666 41.33334,-9.66666 52,-15c44,-19.33333 66,-51.33333 66,-96c0,-18.66667 -3.66666,-37.33333 -11,-56c-7.33334,-18.66667 -18.33334,-37.33333 -33,-56c-14.66666,-18.66667 -35.66666,-33.33333 -63,-44c-27.33334,-10.66667 -58.66666,-16.33333 -94,-17c-51.33334,0 -87.66666,9.66667 -109,29c-21.33334,19.33334 -32.33333,42 -33,68c0,26 7,44.66667 21,56c14,11.33333 28.66666,17 44,17c10,0 19.33333,-3 28,-9c8.66667,-6 13.33333,-16.33333 14,-31c0,-17.33334 -6,-32 -18,-44c-12,-12 -22.33334,-18 -31,-18c-1.33334,-0.66667 -2.33334,-1 -3,-1c-0.66666,0 -1,-0.66667 -1,-2c0.66666,-2 3.33334,-4.66667 8,-8c4.66666,-3.33333 15,-7.66667 31,-13c16,-5.33333 34.33333,-7.66667 55,-7c24,0 44.66667,3.66667 62,11c17.33334,7.33333 30,16.66666 38,28c8,11.33334 13.66666,21.66666 17,31c3.33334,9.33334 5,17.66666 5,25c0,18.66667 -7,32.66667 -21,42c-14,9.33333 -30,15 -48,17c-18,2 -37.66667,7 -59,15c-21.33333,8 -37,19.66667 -47,35c-11.33333,16.66667 -17,36 -17,58z"/>
      </g>
      <g transform="matrix(0.0278897, 0, 0, -0.0278897, 1037.66, 932.547)" id="svg_942">
       <path fill-rule="nonzero" fill="#000000" id="svg_944" d="m-40382.40936,-93531.48813c-12,2 -55,3 -129,3c-77.33334,0 -122,-1 -134,-3l-9,0l0,46l31,0c13.33333,0 22.33333,0 27,0c4.66667,0 10.33334,0.66667 17,2c6.66666,1.33333 11.33334,3 14,5c2.66666,2 5,4.66667 7,8c0.66666,1.33333 1,19.33333 1,54l0,50l-259,0l0,46l151,231c102,154.66669 153.66666,232.33331 155,233c1.33334,1.33331 8.33334,2 21,2l18,0l6,-6l0,-460l92,0l0,-46l-92,0l0,-51c0,-27.33334 0,-43.33334 0,-48c0,-4.66667 2,-8.66667 6,-12c5.33334,-4.66667 24.33334,-7.33333 57,-8l29,0l0,-46l-9,0zm-169,211l0,334l-219,-333l109,-1l110,0z"/>
       <path stroke-opacity="0.0201" stroke-miterlimit="10" stroke="#000000" fill="none" id="svg_943" d="m-40382.40936,-93531.48813c-12,2 -55,3 -129,3c-77.33334,0 -122,-1 -134,-3l-9,0l0,46l31,0c13.33333,0 22.33333,0 27,0c4.66667,0 10.33334,0.66667 17,2c6.66666,1.33333 11.33334,3 14,5c2.66666,2 5,4.66667 7,8c0.66666,1.33333 1,19.33333 1,54l0,50l-259,0l0,46l151,231c102,154.66669 153.66666,232.33331 155,233c1.33334,1.33331 8.33334,2 21,2l18,0l6,-6l0,-460l92,0l0,-46l-92,0l0,-51c0,-27.33334 0,-43.33334 0,-48c0,-4.66667 2,-8.66667 6,-12c5.33334,-4.66667 24.33334,-7.33333 57,-8l29,0l0,-46l-9,0zm-169,211l0,334l-219,-333l109,-1l110,0z"/>
      </g>
      <g transform="matrix(0.0394479, 0, 0, -0.0394479, 1242.19, 926.63)" id="svg_939">
       <path fill-rule="nonzero" fill="#000000" id="svg_941" d="m-28746.00252,-65837.7742c0,21.33334 5.33333,43 16,65c10.66667,22 29.33333,42.33334 56,61c26.66667,18.66666 59,27.66666 97,27c41.33334,0 71.33334,-9 90,-27c18.66666,-18 28.33334,-38 29,-60c0,-21.33334 -5.66666,-37 -17,-47c-11.33334,-10 -24,-15.33334 -38,-16c-8.66666,0 -16.66666,2.66666 -24,8c-7.33334,5.33334 -11.33334,14 -12,26c0,10.66666 3,20 9,28c6,8 11.66666,14 17,18c5.33334,4 9.66666,6 13,6c0.66666,0 1,0.33334 1,1c0,2 -2.33334,5 -7,9c-4.66666,4 -13,7.66666 -25,11c-12,3.33334 -25,5.33334 -39,6c-32,0 -55.33333,-8.66666 -70,-26c-14.66667,-17.33334 -22.33333,-35 -23,-53c0,-16.66666 6.33333,-28.33334 19,-35c12.66667,-6.66666 31,-12.33334 55,-17c24,-4.66666 41.33334,-9.66666 52,-15c44,-19.33333 66,-51.33333 66,-96c0,-18.66667 -3.66666,-37.33333 -11,-56c-7.33334,-18.66667 -18.33334,-37.33333 -33,-56c-14.66666,-18.66667 -35.66666,-33.33333 -63,-44c-27.33334,-10.66667 -58.66666,-16.33333 -94,-17c-51.33334,0 -87.66666,9.66667 -109,29c-21.33334,19.33334 -32.33333,42 -33,68c0,26 7,44.66667 21,56c14,11.33333 28.66666,17 44,17c10,0 19.33333,-3 28,-9c8.66667,-6 13.33333,-16.33333 14,-31c0,-17.33334 -6,-32 -18,-44c-12,-12 -22.33334,-18 -31,-18c-1.33334,-0.66667 -2.33334,-1 -3,-1c-0.66666,0 -1,-0.66667 -1,-2c0.66666,-2 3.33334,-4.66667 8,-8c4.66666,-3.33333 15,-7.66667 31,-13c16,-5.33333 34.33333,-7.66667 55,-7c24,0 44.66667,3.66667 62,11c17.33334,7.33333 30,16.66666 38,28c8,11.33334 13.66666,21.66666 17,31c3.33334,9.33334 5,17.66666 5,25c0,18.66667 -7,32.66667 -21,42c-14,9.33333 -30,15 -48,17c-18,2 -37.66667,7 -59,15c-21.33333,8 -37,19.66667 -47,35c-11.33333,16.66667 -17,36 -17,58z"/>
       <path stroke-opacity="0.0284" stroke-miterlimit="10" stroke="#000000" fill="none" id="svg_940" d="m-28746.00252,-65837.7742c0,21.33334 5.33333,43 16,65c10.66667,22 29.33333,42.33334 56,61c26.66667,18.66666 59,27.66666 97,27c41.33334,0 71.33334,-9 90,-27c18.66666,-18 28.33334,-38 29,-60c0,-21.33334 -5.66666,-37 -17,-47c-11.33334,-10 -24,-15.33334 -38,-16c-8.66666,0 -16.66666,2.66666 -24,8c-7.33334,5.33334 -11.33334,14 -12,26c0,10.66666 3,20 9,28c6,8 11.66666,14 17,18c5.33334,4 9.66666,6 13,6c0.66666,0 1,0.33334 1,1c0,2 -2.33334,5 -7,9c-4.66666,4 -13,7.66666 -25,11c-12,3.33334 -25,5.33334 -39,6c-32,0 -55.33333,-8.66666 -70,-26c-14.66667,-17.33334 -22.33333,-35 -23,-53c0,-16.66666 6.33333,-28.33334 19,-35c12.66667,-6.66666 31,-12.33334 55,-17c24,-4.66666 41.33334,-9.66666 52,-15c44,-19.33333 66,-51.33333 66,-96c0,-18.66667 -3.66666,-37.33333 -11,-56c-7.33334,-18.66667 -18.33334,-37.33333 -33,-56c-14.66666,-18.66667 -35.66666,-33.33333 -63,-44c-27.33334,-10.66667 -58.66666,-16.33333 -94,-17c-51.33334,0 -87.66666,9.66667 -109,29c-21.33334,19.33334 -32.33333,42 -33,68c0,26 7,44.66667 21,56c14,11.33333 28.66666,17 44,17c10,0 19.33333,-3 28,-9c8.66667,-6 13.33333,-16.33333 14,-31c0,-17.33334 -6,-32 -18,-44c-12,-12 -22.33334,-18 -31,-18c-1.33334,-0.66667 -2.33334,-1 -3,-1c-0.66666,0 -1,-0.66667 -1,-2c0.66666,-2 3.33334,-4.66667 8,-8c4.66666,-3.33333 15,-7.66667 31,-13c16,-5.33333 34.33333,-7.66667 55,-7c24,0 44.66667,3.66667 62,11c17.33334,7.33333 30,16.66666 38,28c8,11.33334 13.66666,21.66666 17,31c3.33334,9.33334 5,17.66666 5,25c0,18.66667 -7,32.66667 -21,42c-14,9.33333 -30,15 -48,17c-18,2 -37.66667,7 -59,15c-21.33333,8 -37,19.66667 -47,35c-11.33333,16.66667 -17,36 -17,58z"/>
      </g>
      <g transform="matrix(0.0278897, 0, 0, -0.0278897, 1261.99, 932.547)" id="svg_936">
       <path fill-rule="nonzero" fill="#000000" id="svg_938" d="m-40735.41376,-93102.48813c-18,0 -32.33334,6 -43,18c-10.66667,12 -16,26.66666 -16,44c0,47.33331 17.66666,88.33331 53,123c35.33334,34.66669 79.33333,52 132,52c60.66666,0 111.33334,-18.66669 152,-56c40.66666,-37.33331 61.33334,-85.66669 62,-145c0,-28.66666 -6.66666,-56 -20,-82c-13.33334,-26 -29.33334,-48.66666 -48,-68c-18.66666,-19.33334 -45.33334,-44 -80,-74c-24,-20.66667 -57.33333,-51.33333 -100,-92l-59,-56l76,-1c104.66669,0 160.33334,1.66666 167,5c4.66666,1.33334 12.66666,31 24,89l0,3l40,0l0,-3c-0.66666,-2 -5,-32.33333 -13,-91c-8,-58.66667 -13,-89.33333 -15,-92l0,-3l-371,0l0,19l0,12c0,4.66667 2,9.66667 6,15c4,5.33333 14,17 30,35c19.33334,21.33334 36,40 50,56c6,6.66667 17.33333,19 34,37c16.66667,18 28,30.33333 34,37c6,6.66667 15.66667,17.66667 29,33c13.33333,15.33334 22.66667,26.66666 28,34c5.33334,7.33334 13,17.33334 23,30c10,12.66666 17,23.33334 21,32c4,8.66666 9,18.33334 15,29c6,10.66666 10.33334,21.33334 13,32c2.66666,10.66666 5,20.66666 7,30c2,9.33334 3,20.33334 3,33c0,42 -11.33334,78.33331 -34,109c-22.66666,30.66669 -55,46 -97,46c-22,0 -41.33333,-5.66669 -58,-17c-16.66667,-11.33331 -28.33334,-22.33331 -35,-33c-6.66666,-10.66669 -10,-17 -10,-19c0,-0.66669 1.66666,-1 5,-1c12,0 24.33333,-4.66669 37,-14c12.66667,-9.33331 19,-24.66666 19,-46c0,-16.66666 -5.33333,-30.66666 -16,-42c-10.66667,-11.33334 -25.66667,-17.33334 -45,-18z"/>
       <path stroke-opacity="0.0201" stroke-miterlimit="10" stroke="#000000" fill="none" id="svg_937" d="m-40735.41376,-93102.48813c-18,0 -32.33334,6 -43,18c-10.66667,12 -16,26.66666 -16,44c0,47.33331 17.66666,88.33331 53,123c35.33334,34.66669 79.33333,52 132,52c60.66666,0 111.33334,-18.66669 152,-56c40.66666,-37.33331 61.33334,-85.66669 62,-145c0,-28.66666 -6.66666,-56 -20,-82c-13.33334,-26 -29.33334,-48.66666 -48,-68c-18.66666,-19.33334 -45.33334,-44 -80,-74c-24,-20.66667 -57.33333,-51.33333 -100,-92l-59,-56l76,-1c104.66669,0 160.33334,1.66666 167,5c4.66666,1.33334 12.66666,31 24,89l0,3l40,0l0,-3c-0.66666,-2 -5,-32.33333 -13,-91c-8,-58.66667 -13,-89.33333 -15,-92l0,-3l-371,0l0,19l0,12c0,4.66667 2,9.66667 6,15c4,5.33333 14,17 30,35c19.33334,21.33334 36,40 50,56c6,6.66667 17.33333,19 34,37c16.66667,18 28,30.33333 34,37c6,6.66667 15.66667,17.66667 29,33c13.33333,15.33334 22.66667,26.66666 28,34c5.33334,7.33334 13,17.33334 23,30c10,12.66666 17,23.33334 21,32c4,8.66666 9,18.33334 15,29c6,10.66666 10.33334,21.33334 13,32c2.66666,10.66666 5,20.66666 7,30c2,9.33334 3,20.33334 3,33c0,42 -11.33334,78.33331 -34,109c-22.66666,30.66669 -55,46 -97,46c-22,0 -41.33333,-5.66669 -58,-17c-16.66667,-11.33331 -28.33334,-22.33331 -35,-33c-6.66666,-10.66669 -10,-17 -10,-19c0,-0.66669 1.66666,-1 5,-1c12,0 24.33333,-4.66669 37,-14c12.66667,-9.33331 19,-24.66666 19,-46c0,-16.66666 -5.33333,-30.66666 -16,-42c-10.66667,-11.33334 -25.66667,-17.33334 -45,-18z"/>
      </g>
      <g transform="matrix(0.0394446, 0, 0, -0.0394446, 1130.02, 870.546)" id="svg_933">
       <path fill-rule="nonzero" fill="#000000" id="svg_935" d="m-28748.39079,-65843.24298c0,21.33334 5.33333,43 16,65c10.66667,22 29.33333,42.33334 56,61c26.66667,18.66666 59,27.66666 97,27c41.33334,0 71.33334,-9 90,-27c18.66666,-18 28.33334,-38 29,-60c0,-21.33334 -5.66666,-37 -17,-47c-11.33334,-10 -24,-15.33334 -38,-16c-8.66666,0 -16.66666,2.66666 -24,8c-7.33334,5.33334 -11.33334,14 -12,26c0,10.66666 3,20 9,28c6,8 11.66666,14 17,18c5.33334,4 9.66666,6 13,6c0.66666,0 1,0.33334 1,1c0,2 -2.33334,5 -7,9c-4.66666,4 -13,7.66666 -25,11c-12,3.33334 -25,5.33334 -39,6c-32,0 -55.33333,-8.66666 -70,-26c-14.66667,-17.33334 -22.33333,-35 -23,-53c0,-16.66666 6.33333,-28.33334 19,-35c12.66667,-6.66666 31,-12.33334 55,-17c24,-4.66666 41.33334,-9.66666 52,-15c44,-19.33333 66,-51.33333 66,-96c0,-18.66667 -3.66666,-37.33333 -11,-56c-7.33334,-18.66667 -18.33334,-37.33333 -33,-56c-14.66666,-18.66667 -35.66666,-33.33333 -63,-44c-27.33334,-10.66667 -58.66666,-16.33333 -94,-17c-51.33334,0 -87.66666,9.66667 -109,29c-21.33334,19.33334 -32.33333,42 -33,68c0,26 7,44.66667 21,56c14,11.33333 28.66666,17 44,17c10,0 19.33333,-3 28,-9c8.66667,-6 13.33333,-16.33333 14,-31c0,-17.33334 -6,-32 -18,-44c-12,-12 -22.33334,-18 -31,-18c-1.33334,-0.66667 -2.33334,-1 -3,-1c-0.66666,0 -1,-0.66667 -1,-2c0.66666,-2 3.33334,-4.66667 8,-8c4.66666,-3.33333 15,-7.66667 31,-13c16,-5.33333 34.33333,-7.66667 55,-7c24,0 44.66667,3.66667 62,11c17.33334,7.33333 30,16.66666 38,28c8,11.33334 13.66666,21.66666 17,31c3.33334,9.33334 5,17.66666 5,25c0,18.66667 -7,32.66667 -21,42c-14,9.33333 -30,15 -48,17c-18,2 -37.66667,7 -59,15c-21.33333,8 -37,19.66667 -47,35c-11.33333,16.66667 -17,36 -17,58z"/>
       <path stroke-opacity="0.0284" stroke-miterlimit="10" stroke="#000000" fill="none" id="svg_934" d="m-28748.39079,-65843.24298c0,21.33334 5.33333,43 16,65c10.66667,22 29.33333,42.33334 56,61c26.66667,18.66666 59,27.66666 97,27c41.33334,0 71.33334,-9 90,-27c18.66666,-18 28.33334,-38 29,-60c0,-21.33334 -5.66666,-37 -17,-47c-11.33334,-10 -24,-15.33334 -38,-16c-8.66666,0 -16.66666,2.66666 -24,8c-7.33334,5.33334 -11.33334,14 -12,26c0,10.66666 3,20 9,28c6,8 11.66666,14 17,18c5.33334,4 9.66666,6 13,6c0.66666,0 1,0.33334 1,1c0,2 -2.33334,5 -7,9c-4.66666,4 -13,7.66666 -25,11c-12,3.33334 -25,5.33334 -39,6c-32,0 -55.33333,-8.66666 -70,-26c-14.66667,-17.33334 -22.33333,-35 -23,-53c0,-16.66666 6.33333,-28.33334 19,-35c12.66667,-6.66666 31,-12.33334 55,-17c24,-4.66666 41.33334,-9.66666 52,-15c44,-19.33333 66,-51.33333 66,-96c0,-18.66667 -3.66666,-37.33333 -11,-56c-7.33334,-18.66667 -18.33334,-37.33333 -33,-56c-14.66666,-18.66667 -35.66666,-33.33333 -63,-44c-27.33334,-10.66667 -58.66666,-16.33333 -94,-17c-51.33334,0 -87.66666,9.66667 -109,29c-21.33334,19.33334 -32.33333,42 -33,68c0,26 7,44.66667 21,56c14,11.33333 28.66666,17 44,17c10,0 19.33333,-3 28,-9c8.66667,-6 13.33333,-16.33333 14,-31c0,-17.33334 -6,-32 -18,-44c-12,-12 -22.33334,-18 -31,-18c-1.33334,-0.66667 -2.33334,-1 -3,-1c-0.66666,0 -1,-0.66667 -1,-2c0.66666,-2 3.33334,-4.66667 8,-8c4.66666,-3.33333 15,-7.66667 31,-13c16,-5.33333 34.33333,-7.66667 55,-7c24,0 44.66667,3.66667 62,11c17.33334,7.33333 30,16.66666 38,28c8,11.33334 13.66666,21.66666 17,31c3.33334,9.33334 5,17.66666 5,25c0,18.66667 -7,32.66667 -21,42c-14,9.33333 -30,15 -48,17c-18,2 -37.66667,7 -59,15c-21.33333,8 -37,19.66667 -47,35c-11.33333,16.66667 -17,36 -17,58z"/>
      </g>
      <g transform="matrix(0.0278873, 0, 0, -0.0278873, 1149.83, 876.462)" id="svg_930">
       <path fill-rule="nonzero" fill="#000000" id="svg_932" d="m-40720.7979,-93076.21548c-18,0 -32,5.66666 -42,17c-10,11.33334 -15.33334,26 -16,44c0,36.66669 16,69.33331 48,98c32,28.66669 70.66666,43 116,43c23.33334,0 38,-0.33331 44,-1c49.33334,-8 87,-25.66669 113,-53c26,-27.33331 39.33334,-57 40,-89c0,-34.66666 -11.33334,-68.33334 -34,-101c-22.66666,-32.66666 -54,-56.33334 -94,-71l-3,-2c0,-0.66666 3,-1.66666 9,-3c6,-1.33334 15.66666,-4.33334 29,-9c13.33334,-4.66666 26,-11.66666 38,-21c54.66666,-35.33334 82,-82 82,-140c0,-52.66667 -20.66666,-98.66666 -62,-138c-41.33334,-39.33334 -93.66666,-59 -157,-59c-53.33334,0 -99.33333,14.33333 -138,43c-38.66667,28.66667 -58,65 -58,109c0,18.66667 6,33.66667 18,45c12,11.33333 27,17.33333 45,18c18.66667,0 34,-6 46,-18c12,-12 18,-27 18,-45c0,-7.33334 -1,-14 -3,-20c-2,-6 -4.33333,-11.33334 -7,-16c-2.66667,-4.66666 -6.33333,-8.66666 -11,-12c-4.66667,-3.33334 -8.66667,-6 -12,-8c-3.33333,-2 -6.66667,-3.33334 -10,-4c-3.33334,-0.66666 -6,-1.66666 -8,-3l-4,-1c34,-30 75.33333,-45 124,-45c36.66666,0 64.33334,17.66666 83,53c11.33334,22 17,55.66666 17,101l0,20c0,63.33334 -21.33334,105.66666 -64,127c-10,4 -30.33333,6.33334 -61,7l-42,1l-3,2c-1.33333,2 -2,7.33334 -2,16c0,12 2.66667,18 8,18c18.66667,0 38,1.66666 58,5c22.66667,3.33334 43.33334,17.33334 62,42c18.66666,24.66666 28,62 28,112l0,8c0,38 -11.66666,64.33331 -35,79c-14.66666,9.33331 -30.33334,14 -47,14c-21.33333,0 -41,-3.66669 -59,-11c-18,-7.33331 -30.66667,-15 -38,-23c-7.33333,-8 -11,-12 -11,-12l3,0c2,-0.66669 4.66667,-1.33331 8,-2c3.33333,-0.66669 6.66667,-2.33331 10,-5c3.33333,-2.66669 7.33333,-5 12,-7c4.66667,-2 8,-5.66669 10,-11c2,-5.33331 4.66667,-10.33331 8,-15c3.33333,-4.66669 4.33333,-11.33331 3,-20c0,-14.66666 -4.66667,-27.66666 -14,-39c-9.33333,-11.33334 -24.33333,-17.33334 -45,-18z"/>
       <path stroke-opacity="0.0201" stroke-miterlimit="10" stroke="#000000" fill="none" id="svg_931" d="m-40720.7979,-93076.21548c-18,0 -32,5.66666 -42,17c-10,11.33334 -15.33334,26 -16,44c0,36.66669 16,69.33331 48,98c32,28.66669 70.66666,43 116,43c23.33334,0 38,-0.33331 44,-1c49.33334,-8 87,-25.66669 113,-53c26,-27.33331 39.33334,-57 40,-89c0,-34.66666 -11.33334,-68.33334 -34,-101c-22.66666,-32.66666 -54,-56.33334 -94,-71l-3,-2c0,-0.66666 3,-1.66666 9,-3c6,-1.33334 15.66666,-4.33334 29,-9c13.33334,-4.66666 26,-11.66666 38,-21c54.66666,-35.33334 82,-82 82,-140c0,-52.66667 -20.66666,-98.66666 -62,-138c-41.33334,-39.33334 -93.66666,-59 -157,-59c-53.33334,0 -99.33333,14.33333 -138,43c-38.66667,28.66667 -58,65 -58,109c0,18.66667 6,33.66667 18,45c12,11.33333 27,17.33333 45,18c18.66667,0 34,-6 46,-18c12,-12 18,-27 18,-45c0,-7.33334 -1,-14 -3,-20c-2,-6 -4.33333,-11.33334 -7,-16c-2.66667,-4.66666 -6.33333,-8.66666 -11,-12c-4.66667,-3.33334 -8.66667,-6 -12,-8c-3.33333,-2 -6.66667,-3.33334 -10,-4c-3.33334,-0.66666 -6,-1.66666 -8,-3l-4,-1c34,-30 75.33333,-45 124,-45c36.66666,0 64.33334,17.66666 83,53c11.33334,22 17,55.66666 17,101l0,20c0,63.33334 -21.33334,105.66666 -64,127c-10,4 -30.33333,6.33334 -61,7l-42,1l-3,2c-1.33333,2 -2,7.33334 -2,16c0,12 2.66667,18 8,18c18.66667,0 38,1.66666 58,5c22.66667,3.33334 43.33334,17.33334 62,42c18.66666,24.66666 28,62 28,112l0,8c0,38 -11.66666,64.33331 -35,79c-14.66666,9.33331 -30.33334,14 -47,14c-21.33333,0 -41,-3.66669 -59,-11c-18,-7.33331 -30.66667,-15 -38,-23c-7.33333,-8 -11,-12 -11,-12l3,0c2,-0.66669 4.66667,-1.33331 8,-2c3.33333,-0.66669 6.66667,-2.33331 10,-5c3.33333,-2.66669 7.33333,-5 12,-7c4.66667,-2 8,-5.66669 10,-11c2,-5.33331 4.66667,-10.33331 8,-15c3.33333,-4.66669 4.33333,-11.33331 3,-20c0,-14.66666 -4.66667,-27.66666 -14,-39c-9.33333,-11.33334 -24.33333,-17.33334 -45,-18z"/>
      </g>
      <g transform="matrix(0.0394479, 0, 0, -0.0394479, 1130.02, 758.382)" id="svg_927">
       <path fill-rule="nonzero" fill="#000000" id="svg_929" d="m-28746.00545,-65837.77322c0,21.33334 5.33333,43 16,65c10.66667,22 29.33333,42.33334 56,61c26.66667,18.66666 59,27.66666 97,27c41.33334,0 71.33334,-9 90,-27c18.66666,-18 28.33334,-38 29,-60c0,-21.33334 -5.66666,-37 -17,-47c-11.33334,-10 -24,-15.33334 -38,-16c-8.66666,0 -16.66666,2.66666 -24,8c-7.33334,5.33334 -11.33334,14 -12,26c0,10.66666 3,20 9,28c6,8 11.66666,14 17,18c5.33334,4 9.66666,6 13,6c0.66666,0 1,0.33334 1,1c0,2 -2.33334,5 -7,9c-4.66666,4 -13,7.66666 -25,11c-12,3.33334 -25,5.33334 -39,6c-32,0 -55.33333,-8.66666 -70,-26c-14.66667,-17.33334 -22.33333,-35 -23,-53c0,-16.66666 6.33333,-28.33334 19,-35c12.66667,-6.66666 31,-12.33334 55,-17c24,-4.66666 41.33334,-9.66666 52,-15c44,-19.33333 66,-51.33333 66,-96c0,-18.66667 -3.66666,-37.33333 -11,-56c-7.33334,-18.66667 -18.33334,-37.33333 -33,-56c-14.66666,-18.66667 -35.66666,-33.33333 -63,-44c-27.33334,-10.66667 -58.66666,-16.33333 -94,-17c-51.33334,0 -87.66666,9.66667 -109,29c-21.33334,19.33334 -32.33333,42 -33,68c0,26 7,44.66667 21,56c14,11.33333 28.66666,17 44,17c10,0 19.33333,-3 28,-9c8.66667,-6 13.33333,-16.33333 14,-31c0,-17.33334 -6,-32 -18,-44c-12,-12 -22.33334,-18 -31,-18c-1.33334,-0.66667 -2.33334,-1 -3,-1c-0.66666,0 -1,-0.66667 -1,-2c0.66666,-2 3.33334,-4.66667 8,-8c4.66666,-3.33333 15,-7.66667 31,-13c16,-5.33333 34.33333,-7.66667 55,-7c24,0 44.66667,3.66667 62,11c17.33334,7.33333 30,16.66666 38,28c8,11.33334 13.66666,21.66666 17,31c3.33334,9.33334 5,17.66666 5,25c0,18.66667 -7,32.66667 -21,42c-14,9.33333 -30,15 -48,17c-18,2 -37.66667,7 -59,15c-21.33333,8 -37,19.66667 -47,35c-11.33333,16.66667 -17,36 -17,58z"/>
       <path stroke-opacity="0.0284" stroke-miterlimit="10" stroke="#000000" fill="none" id="svg_928" d="m-28746.00545,-65837.77322c0,21.33334 5.33333,43 16,65c10.66667,22 29.33333,42.33334 56,61c26.66667,18.66666 59,27.66666 97,27c41.33334,0 71.33334,-9 90,-27c18.66666,-18 28.33334,-38 29,-60c0,-21.33334 -5.66666,-37 -17,-47c-11.33334,-10 -24,-15.33334 -38,-16c-8.66666,0 -16.66666,2.66666 -24,8c-7.33334,5.33334 -11.33334,14 -12,26c0,10.66666 3,20 9,28c6,8 11.66666,14 17,18c5.33334,4 9.66666,6 13,6c0.66666,0 1,0.33334 1,1c0,2 -2.33334,5 -7,9c-4.66666,4 -13,7.66666 -25,11c-12,3.33334 -25,5.33334 -39,6c-32,0 -55.33333,-8.66666 -70,-26c-14.66667,-17.33334 -22.33333,-35 -23,-53c0,-16.66666 6.33333,-28.33334 19,-35c12.66667,-6.66666 31,-12.33334 55,-17c24,-4.66666 41.33334,-9.66666 52,-15c44,-19.33333 66,-51.33333 66,-96c0,-18.66667 -3.66666,-37.33333 -11,-56c-7.33334,-18.66667 -18.33334,-37.33333 -33,-56c-14.66666,-18.66667 -35.66666,-33.33333 -63,-44c-27.33334,-10.66667 -58.66666,-16.33333 -94,-17c-51.33334,0 -87.66666,9.66667 -109,29c-21.33334,19.33334 -32.33333,42 -33,68c0,26 7,44.66667 21,56c14,11.33333 28.66666,17 44,17c10,0 19.33333,-3 28,-9c8.66667,-6 13.33333,-16.33333 14,-31c0,-17.33334 -6,-32 -18,-44c-12,-12 -22.33334,-18 -31,-18c-1.33334,-0.66667 -2.33334,-1 -3,-1c-0.66666,0 -1,-0.66667 -1,-2c0.66666,-2 3.33334,-4.66667 8,-8c4.66666,-3.33333 15,-7.66667 31,-13c16,-5.33333 34.33333,-7.66667 55,-7c24,0 44.66667,3.66667 62,11c17.33334,7.33333 30,16.66666 38,28c8,11.33334 13.66666,21.66666 17,31c3.33334,9.33334 5,17.66666 5,25c0,18.66667 -7,32.66667 -21,42c-14,9.33333 -30,15 -48,17c-18,2 -37.66667,7 -59,15c-21.33333,8 -37,19.66667 -47,35c-11.33333,16.66667 -17,36 -17,58z"/>
      </g>
      <g transform="matrix(0.0278897, 0, 0, -0.0278897, 1149.83, 764.299)" id="svg_924">
       <path fill-rule="nonzero" fill="#000000" id="svg_926" d="m-40631.40985,-92953.48911l-13,-5c-9.33333,-3.33331 -22.66667,-6.66669 -40,-10c-17.33333,-3.33331 -36.66666,-5.66669 -58,-7l-19,0l0,46l19,0c31.33333,1.33331 60.33333,6.33331 87,15c26.66667,8.66669 45.33333,16.66669 56,24c10.66667,7.33331 20,14.66669 28,22c1.33334,2 5.33334,3 12,3c6,0 11.66666,-2 17,-6l0,-299l1,-300c4.66666,-4.66667 8.66666,-7.66667 12,-9c3.33334,-1.33333 11.33334,-2.66667 24,-4c12.66666,-1.33333 33.33334,-2 62,-2l26,0l0,-46l-11,0c-14,2 -67,3 -159,3c-90.66667,0 -143,-1 -157,-3l-12,0l0,46l26,0c14.66667,0 27.33333,0 38,0c10.66667,0 19,0.33333 25,1c6,0.66667 11.33333,1.66667 16,3c4.66667,1.33333 7.33333,2 8,2c0.66667,0 2.66667,1.66667 6,5c3.33333,3.33333 5.33333,4.66667 6,4l0,517z"/>
       <path stroke-opacity="0.0201" stroke-miterlimit="10" stroke="#000000" fill="none" id="svg_925" d="m-40631.40985,-92953.48911l-13,-5c-9.33333,-3.33331 -22.66667,-6.66669 -40,-10c-17.33333,-3.33331 -36.66666,-5.66669 -58,-7l-19,0l0,46l19,0c31.33333,1.33331 60.33333,6.33331 87,15c26.66667,8.66669 45.33333,16.66669 56,24c10.66667,7.33331 20,14.66669 28,22c1.33334,2 5.33334,3 12,3c6,0 11.66666,-2 17,-6l0,-299l1,-300c4.66666,-4.66667 8.66666,-7.66667 12,-9c3.33334,-1.33333 11.33334,-2.66667 24,-4c12.66666,-1.33333 33.33334,-2 62,-2l26,0l0,-46l-11,0c-14,2 -67,3 -159,3c-90.66667,0 -143,-1 -157,-3l-12,0l0,46l26,0c14.66667,0 27.33333,0 38,0c10.66667,0 19,0.33333 25,1c6,0.66667 11.33333,1.66667 16,3c4.66667,1.33333 7.33333,2 8,2c0.66667,0 2.66667,1.66667 6,5c3.33333,3.33333 5.33333,4.66667 6,4l0,517z"/>
      </g>
     </g>
    </g>
   </g>
  </g>
 </g>
</svg>